<svg width="133" height="23" viewBox="0 0 133 23" fill="none" xmlns="http://www.w3.org/2000/svg">
<path d="M13.4021 1.556V17H9.64011V10.642H3.78811V17H0.0261094V1.556H3.78811V7.606H9.64011V1.556H13.4021ZM27.6899 10.664C27.6899 11.016 27.6679 11.3827 27.6239 11.764H19.1099C19.1686 12.5267 19.4106 13.1133 19.8359 13.524C20.2759 13.92 20.8112 14.118 21.4419 14.118C22.3806 14.118 23.0332 13.722 23.3999 12.93H27.4039C27.1986 13.7367 26.8246 14.4627 26.2819 15.108C25.7539 15.7533 25.0866 16.2593 24.2799 16.626C23.4732 16.9927 22.5712 17.176 21.5739 17.176C20.3712 17.176 19.3006 16.9193 18.3619 16.406C17.4232 15.8927 16.6899 15.1593 16.1619 14.206C15.6339 13.2527 15.3699 12.138 15.3699 10.862C15.3699 9.586 15.6266 8.47133 16.1399 7.518C16.6679 6.56467 17.4012 5.83133 18.3399 5.318C19.2786 4.80467 20.3566 4.548 21.5739 4.548C22.7619 4.548 23.8179 4.79733 24.7419 5.296C25.6659 5.79467 26.3846 6.506 26.8979 7.43C27.4259 8.354 27.6899 9.432 27.6899 10.664ZM23.8399 9.674C23.8399 9.02867 23.6199 8.51533 23.1799 8.134C22.7399 7.75267 22.1899 7.562 21.5299 7.562C20.8992 7.562 20.3639 7.74533 19.9239 8.112C19.4986 8.47867 19.2346 8.99933 19.1319 9.674H23.8399ZM28.9265 10.84C28.9265 9.57867 29.1612 8.47133 29.6305 7.518C30.1145 6.56467 30.7672 5.83133 31.5885 5.318C32.4099 4.80467 33.3265 4.548 34.3385 4.548C35.2039 4.548 35.9592 4.724 36.6045 5.076C37.2645 5.428 37.7705 5.89 38.1225 6.462V4.724H41.8845V17H38.1225V15.262C37.7559 15.834 37.2425 16.296 36.5825 16.648C35.9372 17 35.1819 17.176 34.3165 17.176C33.3192 17.176 32.4099 16.9193 31.5885 16.406C30.7672 15.878 30.1145 15.1373 29.6305 14.184C29.1612 13.216 28.9265 12.1013 28.9265 10.84ZM38.1225 10.862C38.1225 9.92333 37.8585 9.18267 37.3305 8.64C36.8172 8.09733 36.1865 7.826 35.4385 7.826C34.6905 7.826 34.0525 8.09733 33.5245 8.64C33.0112 9.168 32.7545 9.90133 32.7545 10.84C32.7545 11.7787 33.0112 12.5267 33.5245 13.084C34.0525 13.6267 34.6905 13.898 35.4385 13.898C36.1865 13.898 36.8172 13.6267 37.3305 13.084C37.8585 12.5413 38.1225 11.8007 38.1225 10.862ZM48.3682 0.72V17H44.6062V0.72H48.3682ZM57.9365 13.81V17H56.0225C54.6585 17 53.5951 16.67 52.8325 16.01C52.0698 15.3353 51.6885 14.2427 51.6885 12.732V7.848H50.1925V4.724H51.6885V1.732H55.4505V4.724H57.9145V7.848H55.4505V12.776C55.4505 13.1427 55.5385 13.4067 55.7145 13.568C55.8905 13.7293 56.1838 13.81 56.5945 13.81H57.9365ZM67.578 4.592C68.986 4.592 70.1153 5.06133 70.966 6C71.8166 6.924 72.242 8.2 72.242 9.828V17H68.502V10.334C68.502 9.51267 68.2893 8.87467 67.864 8.42C67.4386 7.96533 66.8666 7.738 66.148 7.738C65.4293 7.738 64.8573 7.96533 64.432 8.42C64.0066 8.87467 63.794 9.51267 63.794 10.334V17H60.032V0.72H63.794V6.374C64.1753 5.83133 64.696 5.39867 65.356 5.076C66.016 4.75333 66.7566 4.592 67.578 4.592ZM87.3962 4.724L79.6962 22.83H75.6482L78.4642 16.582L73.4702 4.724H77.6722L80.5102 12.402L83.3262 4.724H87.3962ZM102.133 1.556V17H98.3706V10.642H92.5186V17H88.7566V1.556H92.5186V7.606H98.3706V1.556H102.133ZM116.97 4.724V17H113.208V15.328C112.827 15.8707 112.306 16.3107 111.646 16.648C111.001 16.9707 110.282 17.132 109.49 17.132C108.552 17.132 107.723 16.9267 107.004 16.516C106.286 16.0907 105.728 15.482 105.332 14.69C104.936 13.898 104.738 12.9667 104.738 11.896V4.724H108.478V11.39C108.478 12.2113 108.691 12.8493 109.116 13.304C109.542 13.7587 110.114 13.986 110.832 13.986C111.566 13.986 112.145 13.7587 112.57 13.304C112.996 12.8493 113.208 12.2113 113.208 11.39V4.724H116.97ZM123.435 6.462C123.787 5.89 124.293 5.428 124.953 5.076C125.613 4.724 126.368 4.548 127.219 4.548C128.231 4.548 129.147 4.80467 129.969 5.318C130.79 5.83133 131.435 6.56467 131.905 7.518C132.389 8.47133 132.631 9.57867 132.631 10.84C132.631 12.1013 132.389 13.216 131.905 14.184C131.435 15.1373 130.79 15.878 129.969 16.406C129.147 16.9193 128.231 17.176 127.219 17.176C126.353 17.176 125.598 17.0073 124.953 16.67C124.307 16.318 123.801 15.856 123.435 15.284V17H119.673V0.72H123.435V6.462ZM128.803 10.84C128.803 9.90133 128.539 9.168 128.011 8.64C127.497 8.09733 126.859 7.826 126.097 7.826C125.349 7.826 124.711 8.09733 124.183 8.64C123.669 9.18267 123.413 9.92333 123.413 10.862C123.413 11.8007 123.669 12.5413 124.183 13.084C124.711 13.6267 125.349 13.898 126.097 13.898C126.845 13.898 127.483 13.6267 128.011 13.084C128.539 12.5267 128.803 11.7787 128.803 10.84Z" fill="#B6B6B6"/>
</svg>
