<svg width="80" height="80" viewBox="0 0 80 80" fill="none" xmlns="http://www.w3.org/2000/svg">
<path d="M60 50.0001V63.3334C60 68.8334 55.5 73.3334 50 73.3334H30C24.5 73.3334 20 68.8334 20 63.3334V46.6001L32.9667 46.6668C35.4 46.6668 37.8 47.2334 40 48.3334C42.2 49.4334 44.6 50.0001 47.0666 50.0001H60Z" stroke="#B6C3FF" stroke-width="2" stroke-linecap="round" stroke-linejoin="round"/>
<path d="M60 36.0998V49.9998H47.0666C44.6 49.9998 42.2 49.4332 40 48.3332C37.8 47.2332 35.4 46.6665 32.9667 46.6665L20 46.5998V36.0998C20 34.5665 20.8668 32.4665 21.9668 31.3665L29.0334 24.2998C29.6334 23.6998 30 22.8332 30 21.9665V16.6665H50V21.9665C50 22.8332 50.3666 23.6998 50.9666 24.2998L58.0332 31.3665C59.1332 32.4665 60 34.5665 60 36.0998Z" stroke="#B6C3FF" stroke-width="2" stroke-linecap="round" stroke-linejoin="round"/>
<path d="M60 53.3333V50" stroke="#B6C3FF" stroke-width="1.5" stroke-linecap="round" stroke-linejoin="round"/>
<path d="M20 49.9334V46.6001" stroke="#B6C3FF" stroke-width="1.5" stroke-linecap="round" stroke-linejoin="round"/>
<path d="M48.3337 16.6665H31.667C28.9003 16.6665 26.667 14.3998 26.667 11.6665C26.667 8.93317 28.9003 6.6665 31.667 6.6665H48.3337C51.1003 6.6665 53.3337 8.93317 53.3337 11.6665C53.3337 14.3998 51.1003 16.6665 48.3337 16.6665Z" stroke="#B6C3FF" stroke-width="2" stroke-linecap="round" stroke-linejoin="round"/>
</svg>
