<svg width="80" height="80" viewBox="0 0 80 80" fill="none" xmlns="http://www.w3.org/2000/svg">
<path d="M51.9662 40.8665C61.4103 40.8665 69.0662 33.2106 69.0662 23.7665C69.0662 14.3225 61.4103 6.6665 51.9662 6.6665C42.5222 6.6665 34.8662 14.3225 34.8662 23.7665C34.8662 33.2106 42.5222 40.8665 51.9662 40.8665Z" stroke="#45FFBC" stroke-width="2" stroke-miterlimit="10"/>
<path d="M21.2002 64.7999C26.8703 64.7999 31.4669 60.2034 31.4669 54.5333C31.4669 48.8632 26.8703 44.2666 21.2002 44.2666C15.5301 44.2666 10.9336 48.8632 10.9336 54.5333C10.9336 60.2034 15.5301 64.7999 21.2002 64.7999Z" stroke="#45FFBC" stroke-width="2" stroke-miterlimit="10"/>
<path d="M55.3995 73.3333C60.1124 73.3333 63.9329 69.5128 63.9329 64.7999C63.9329 60.0871 60.1124 56.2666 55.3995 56.2666C50.6867 56.2666 46.8662 60.0871 46.8662 64.7999C46.8662 69.5128 50.6867 73.3333 55.3995 73.3333Z" stroke="#45FFBC" stroke-width="2" stroke-miterlimit="10"/>
</svg>
