<svg xmlns="http://www.w3.org/2000/svg" width="16" height="16" fill="none"><g stroke="#fff" stroke-linecap="round" stroke-linejoin="round" stroke-width="1.3" clip-path="url(#a)"><path d="M11.96 11.96A6.714 6.714 0 0 1 8 13.333C3.333 13.333.667 8 .667 8A12.3 12.3 0 0 1 4.04 4.04M6.6 2.827a6.08 6.08 0 0 1 1.4-.16C12.667 2.667 15.333 8 15.333 8c-.404.757-.887 1.47-1.44 2.127m-4.48-.714a2 2 0 1 1-2.826-2.826M.667.667l14.666 14.666"/></g><defs><clipPath id="a"><path fill="#fff" d="M0 0h16v16H0z"/></clipPath></defs></svg>