<svg width="36" height="36" viewBox="0 0 36 36" fill="none" xmlns="http://www.w3.org/2000/svg">
<g id="Lunch image" clip-path="url(#clip0_140_7041)">
<g id="Group">
<g id="Layer 1">
<path id="Vector" d="M36.0003 17.8449C36.0308 21.4049 35.0049 24.894 33.0524 27.871C31.0998 30.8479 28.3083 33.179 25.0309 34.5695C21.7535 35.9599 18.1374 36.3472 14.6398 35.6824C11.1423 35.0176 7.92044 33.3306 5.38171 30.8347C2.84299 28.3388 1.10143 25.146 0.377279 21.6603C-0.346875 18.1746 -0.0210974 14.5524 1.31341 11.2518C2.64792 7.95122 4.93123 5.1205 7.87457 3.11763C10.8179 1.11476 14.2891 0.0297008 17.8491 -0.000335082C22.6224 -0.0406075 27.2163 1.81681 30.6202 5.16337C34.0242 8.50992 35.9594 13.0715 36.0003 17.8449Z" fill="#F4F4F4"/>
<path id="Vector_2" d="M17.8566 1.22384C22.0065 1.19168 26.0204 2.70215 29.1196 5.46221C32.2188 8.22226 34.1822 12.0351 34.629 16.161C35.0759 20.2869 33.9742 24.4317 31.5377 27.7913C29.1013 31.1508 25.5038 33.4855 21.4432 34.3425C17.3826 35.1995 13.1484 34.5176 9.56218 32.4292C5.97593 30.3408 3.29328 26.9946 2.03471 23.0401C0.776137 19.0855 1.03137 14.8044 2.75089 11.0273C4.47041 7.25027 7.53161 4.2466 11.3406 2.59904C13.3982 1.70775 15.6143 1.24005 17.8566 1.22384ZM17.8566 0.806243C14.456 0.834849 11.1403 1.87122 8.32881 3.7843C5.51728 5.69738 3.3362 8.40124 2.0614 11.5539C0.786604 14.7066 0.475344 18.1665 1.16699 21.4961C1.85863 24.8257 3.52211 27.8755 5.94705 30.2596C8.372 32.6438 11.4495 34.2553 14.7903 34.8904C18.1312 35.5254 21.5853 35.1555 24.7159 33.8274C27.8466 32.4994 30.513 30.2727 32.3782 27.4292C34.2433 24.5856 35.2233 21.2528 35.1942 17.8522C35.1543 13.2931 33.3055 8.93639 30.0543 5.73992C26.8032 2.54345 22.4158 0.768846 17.8566 0.806243Z" fill="#006EC3"/>
<path id="Vector_3" d="M17.8637 1.80006C22.1596 1.76362 26.2941 3.43506 29.3578 6.44675C32.4215 9.45844 34.1634 13.5637 34.2005 17.8597C34.2305 21.5962 32.9678 25.2283 30.6264 28.1404C28.285 31.0526 25.0089 33.0658 21.3531 33.839C17.6973 34.6122 13.8866 34.0978 10.5666 32.383C7.24662 30.6682 4.62153 27.8584 3.13608 24.4297C2.07496 21.9759 1.63757 19.2978 1.8629 16.634C2.08823 13.9701 2.96929 11.4035 4.4275 9.16289C5.88571 6.92228 7.87575 5.07737 10.2201 3.79267C12.5646 2.50797 15.1904 1.82342 17.8637 1.80006ZM17.8637 1.63086C14.6288 1.65801 11.4745 2.64372 8.79975 4.46335C6.12499 6.28299 4.0498 8.85484 2.83656 11.8538C1.62331 14.8527 1.3265 18.144 1.98363 21.3116C2.64076 24.4792 4.22234 27.3808 6.5284 29.6496C8.83446 31.9184 11.7614 33.4525 14.9393 34.058C18.1172 34.6635 21.4032 34.3131 24.382 33.0512C27.3608 31.7893 29.8985 29.6725 31.6743 26.9685C33.4502 24.2645 34.3844 21.0946 34.3589 17.8597C34.3161 13.5245 32.5546 9.38358 29.4612 6.34616C26.3677 3.30875 22.1953 1.6232 17.8601 1.65966L17.8637 1.63086Z" fill="#006EC3"/>
<path id="Vector_4" d="M30.3663 17.8958C30.3869 20.3414 29.6818 22.7383 28.3402 24.7832C26.9986 26.8281 25.0807 28.4292 22.8291 29.3842C20.5775 30.3391 18.0933 30.605 15.6907 30.1481C13.288 29.6912 11.0747 28.5321 9.33082 26.8174C7.58689 25.1026 6.39059 22.9093 5.8932 20.5147C5.39581 18.12 5.61966 15.6317 6.53645 13.3643C7.45324 11.0969 9.02179 9.1523 11.0438 7.77636C13.0657 6.40041 15.4503 5.65494 17.8959 5.6342C21.1754 5.60736 24.3312 6.88392 26.6697 9.18323C29.0081 11.4825 30.3378 14.6164 30.3663 17.8958Z" fill="#DADADA"/>
<path id="Vector_5" d="M30.1034 17.8957C30.124 20.2894 29.4343 22.6354 28.1216 24.6371C26.8088 26.6388 24.932 28.2063 22.7284 29.1413C20.5249 30.0764 18.0935 30.337 15.7418 29.8902C13.3901 29.4435 11.2237 28.3094 9.51655 26.6314C7.80938 24.9535 6.63811 22.8069 6.15086 20.4633C5.6636 18.1197 5.88225 15.6842 6.77915 13.4648C7.67604 11.2454 9.21091 9.34187 11.1897 7.99481C13.1684 6.64774 15.5022 5.91767 17.8958 5.89694C19.4853 5.88317 21.0618 6.18261 22.5355 6.77817C24.0092 7.37372 25.3512 8.25373 26.4848 9.36793C27.6184 10.4821 28.5214 11.8087 29.1423 13.2719C29.7632 14.7351 30.0898 16.3063 30.1034 17.8957Z" fill="#F4F4F4"/>
<path id="Vector_6" d="M25.168 21.9242C24.9124 22.0214 25.0492 22.241 25.2004 22.3742C25.3516 22.5074 25.5928 22.3202 25.5928 22.3202C25.9024 22.0826 26.3128 21.8414 26.248 21.7442C26.1832 21.647 26.0464 21.6938 25.7692 21.7442C25.5655 21.7926 25.3648 21.8527 25.168 21.9242Z" fill="#809F20"/>
<path id="Vector_7" d="M19.2498 23.3383C17.6999 23.7619 16.1846 24.3035 14.7174 24.9583C14.235 25.2067 14.6778 25.8943 14.6778 25.8943C14.883 26.1715 15.0162 26.3227 16.215 26.2543C17.4934 26.174 18.7493 25.8795 19.9302 25.3831C21.417 24.7927 23.0154 24.2239 24.2178 23.6191C25.4202 23.0143 25.1502 22.7371 25.449 22.4635C25.4958 22.4239 25.5498 22.3771 25.6074 22.3339C25.6074 22.3339 25.3662 22.5175 25.215 22.3843C25.0638 22.2511 24.927 22.0243 25.1826 21.9343C25.3815 21.8601 25.5847 21.7976 25.791 21.7471C25.4562 21.7903 24.9594 21.8875 24.351 21.9955C23.1918 22.1827 21.6006 22.6543 19.2498 23.3383Z" fill="#648C08"/>
<path id="Vector_8" d="M18.0871 25.6246C18.0871 25.6246 18.5155 25.4662 18.8395 25.3798C19.1635 25.2934 19.3687 25.2214 19.0951 25.4842C18.9206 25.6833 18.6973 25.8334 18.4471 25.9198C18.2491 25.9738 18.0871 25.9846 17.9719 25.8694C17.8567 25.7542 17.9647 25.6714 18.0871 25.6246Z" fill="#809F20"/>
<g id="Vector_9" style="mix-blend-mode:multiply" opacity="0.5">
<path d="M24.3288 21.9814C23.1912 22.183 21.6144 22.6546 19.2492 23.3386C18.5472 23.5438 17.9028 23.7454 17.334 23.9362C18.774 23.8282 20.178 23.713 21.5964 23.5762C22.428 23.4862 23.3496 23.3674 24.0696 22.9066C24.4078 22.6763 24.7699 22.4832 25.1496 22.3306C25.0272 22.1974 24.9552 22.0246 25.1784 21.9382C25.3774 21.864 25.5805 21.8015 25.7868 21.751C25.4484 21.7762 24.9516 21.8734 24.3288 21.9814Z" fill="#648C08"/>
</g>
<g id="Vector_10" style="mix-blend-mode:multiply" opacity="0.5">
<path d="M17.3668 25.7542C16.7764 25.7542 16.1896 25.7218 15.5992 25.7542C15.3452 25.774 15.0901 25.774 14.836 25.7542C14.7474 25.7418 14.6596 25.7237 14.5732 25.7002C14.6027 25.77 14.6376 25.8374 14.6776 25.9018C14.8828 26.179 15.016 26.3302 16.2148 26.2618C17.1114 26.2095 17.9979 26.045 18.8536 25.7722C18.3604 25.7578 17.86 25.7578 17.3668 25.7542Z" fill="#648C08"/>
</g>
<path id="Vector_11" d="M15.0487 25.0087C15.0487 25.0087 15.0487 25.3687 15.5239 25.1635C15.9991 24.9583 16.4815 24.6883 16.4383 24.5767C16.3951 24.4651 15.6967 24.5191 15.3583 24.6739C15.0199 24.8287 15.0271 24.9259 15.0487 25.0087Z" fill="#809F20"/>
<path id="Vector_12" d="M19.1266 24.5444C19.1266 24.5444 18.8746 24.2132 19.0582 24.1376C19.485 23.9937 19.9272 23.9006 20.3758 23.8604C20.4262 23.9216 19.9654 24.2204 19.7026 24.4076C19.4398 24.5948 19.267 24.728 19.1266 24.5444Z" fill="#809F20"/>
<path id="Vector_13" d="M21.5748 24.8397C21.8227 24.7487 22.0633 24.6392 22.2948 24.5121C22.6548 24.3033 22.9572 24.0981 22.932 24.0369C22.9068 23.9757 22.0752 24.1953 21.6936 24.3069C21.0924 24.4797 21.1752 25.0017 21.5748 24.8397Z" fill="#809F20"/>
<path id="Vector_14" d="M24.9304 22.8888C24.9304 22.8888 24.9952 23.1696 25.222 23.0832C25.582 22.9051 25.9153 22.6772 26.212 22.4064C26.4352 22.176 26.1904 22.248 25.7224 22.3452C25.2544 22.4424 24.8404 22.5684 24.9304 22.8888Z" fill="#809F20"/>
<path id="Vector_15" d="M24.0051 22.1181C24.0242 22.1841 24.0619 22.2432 24.1135 22.2885C24.1652 22.3338 24.2288 22.3634 24.2967 22.3737C24.5379 22.4133 24.5811 22.3089 24.8403 22.1181C25.0995 21.9273 25.5207 21.5169 25.0203 21.6609C24.5199 21.8049 23.9043 21.9273 24.0051 22.1181Z" fill="#809F20"/>
<path id="Vector_16" d="M14.2451 27.5753C14.2451 27.5753 14.1947 28.2485 14.6051 28.3205C15.8929 28.3621 17.1819 28.3044 18.4607 28.1477C19.7999 27.9929 19.7819 27.9749 20.6207 27.8813C21.4595 27.7877 21.7835 27.8597 23.1407 27.6545C24.4979 27.4493 24.6995 27.4637 24.5591 27.2729C24.4187 27.0821 24.1991 26.6393 22.4567 26.5853C20.7143 26.5313 14.4575 26.8949 14.2451 27.5753Z" fill="#648C08"/>
<g id="Vector_17" style="mix-blend-mode:multiply" opacity="0.5">
<path d="M19.4188 27.4133C20.4655 27.3373 21.5004 27.144 22.504 26.8373C22.7092 26.7725 22.9072 26.7041 23.1088 26.6321C22.918 26.6105 22.6984 26.5925 22.4464 26.5853C20.722 26.5313 14.458 26.8949 14.2456 27.5753C14.2369 27.716 14.2515 27.8571 14.2888 27.9929C15.9664 27.5897 17.7016 27.5717 19.4188 27.4133Z" fill="#648C08"/>
</g>
<path id="Vector_18" d="M17.2806 28.2593C17.5098 28.2245 17.7344 28.1641 17.9502 28.0793C18.195 27.9605 17.907 27.8597 17.3022 27.8309C16.6974 27.8021 16.6074 27.8813 16.6074 28.0757C16.6074 28.2701 16.701 28.3997 17.2806 28.2593Z" fill="#809F20"/>
<path id="Vector_19" d="M20.6789 27.8958C20.9203 27.8947 21.1612 27.873 21.3989 27.831C21.7049 27.7662 21.6005 27.6258 21.1649 27.6078C20.7293 27.5898 20.5205 27.5754 20.5205 27.7194C20.5205 27.8634 20.5565 27.8922 20.6789 27.8958Z" fill="#809F20"/>
<path id="Vector_20" d="M23.4577 27.3595C23.4577 27.3595 23.4577 27.5935 23.6593 27.5935C23.963 27.591 24.2635 27.5311 24.5449 27.4171C24.5989 27.3379 24.3613 27.2695 23.8249 27.2407C23.4793 27.1903 23.4469 27.2371 23.4577 27.3595Z" fill="#788E1A"/>
<path id="Vector_21" d="M23.7607 26.9382C23.7607 26.9382 23.7607 27.3306 24.0667 27.3198C24.3727 27.309 24.9055 27.2478 24.9235 27.1506C24.9415 27.0534 23.7211 26.5134 23.7607 26.9382Z" fill="#809F20"/>
<path id="Vector_22" d="M23.0188 27.3597C23.2099 27.363 23.4011 27.3546 23.5912 27.3345C23.8612 27.3021 24.1168 27.2877 23.5336 27.0897C22.9504 26.8917 22.5652 26.8197 22.5724 27.0537C22.5796 27.2877 22.6084 27.3309 23.0188 27.3597Z" fill="#809F20"/>
<path id="Vector_23" d="M24.4266 25.6822C24.4266 25.6822 24.7866 25.5742 24.729 25.459C24.6714 25.3438 24.333 25.3258 24.0738 25.4302C23.8146 25.5346 23.955 25.7614 24.4266 25.6822Z" fill="#AAC844"/>
<path id="Vector_24" d="M13.0751 27.0822C13.0751 27.0822 13.1615 27.7194 13.6403 27.7194C14.1191 27.7194 15.5159 27.5502 16.3619 27.4782C17.2079 27.4062 17.7407 27.4998 19.1087 27.3486C20.4873 27.1914 21.8459 26.891 23.1623 26.4522C24.2423 26.0706 24.9083 25.7646 24.1415 25.5918C23.0526 25.4475 21.9482 25.4682 20.8655 25.653C20.1743 25.8078 15.6851 26.0814 13.9103 25.8978C13.1039 25.8582 12.9239 26.4126 13.0751 27.0822Z" fill="#84AE0C"/>
<path id="Vector_25" d="M16.7801 26.3558C17.05 26.2869 17.3262 26.2459 17.6045 26.2334C18.0293 26.2334 18.1985 26.2694 17.8601 26.4422C17.5217 26.615 17.0033 26.8238 16.8305 26.6978C16.6577 26.5718 16.6937 26.399 16.7801 26.3558Z" fill="#AAC844"/>
<path id="Vector_26" d="M19.4401 25.8726C19.4401 25.8726 19.4185 26.2326 19.7461 26.1498C20.0867 26.0727 20.4158 25.9517 20.7253 25.7898C20.9197 25.6638 20.7433 25.6242 20.3653 25.6602C19.9873 25.6962 19.4185 25.6998 19.4401 25.8726Z" fill="#AAC844"/>
<path id="Vector_27" d="M20.6895 27.0793C21.0322 27.0358 21.3699 26.9586 21.6975 26.8489C21.9567 26.7265 21.6723 26.7733 21.2007 26.7013C20.3943 26.5825 20.3763 27.0397 20.6895 27.0793Z" fill="#AAC844"/>
<path id="Vector_28" d="M22.979 26.5139C22.979 26.5139 22.6406 26.6399 22.5002 26.3987C22.3598 26.1575 22.5542 25.9703 22.8962 25.9919C23.2382 26.0135 23.9978 26.1215 23.771 26.2115L22.979 26.5139Z" fill="#AAC844"/>
<path id="Vector_29" d="M22.903 25.7292C22.903 25.7292 22.9282 25.9416 23.4646 25.812C24.001 25.6824 24.451 25.452 24.253 25.3764C24.055 25.3008 22.6114 25.2648 22.903 25.7292Z" fill="#9FB739"/>
<path id="Vector_30" d="M22.3207 25.5197C22.3207 25.5197 22.4287 25.8797 22.7347 25.7861C23.0407 25.6925 23.6923 25.5089 23.4295 25.4261C23.1667 25.3433 22.2667 25.2425 22.3207 25.5197Z" fill="#AAC844"/>
<path id="Vector_31" d="M15.2215 27.4535C15.2215 27.4535 15.2683 27.7703 15.6715 27.7199C16.1408 27.6734 16.6055 27.5891 17.0611 27.4679C17.2771 27.3743 16.3915 27.2807 15.9271 27.2843C15.4627 27.2879 15.1567 27.2843 15.2215 27.4535Z" fill="#AAC844"/>
<path id="Vector_32" d="M12.6006 24.0439C12.6006 24.0439 15.4806 23.9683 17.7954 23.7307C20.1102 23.4931 20.0094 23.5075 21.1902 23.3383C22.2702 23.1799 23.4438 22.9783 23.9694 22.8415C24.495 22.7047 24.3294 22.5427 23.6706 22.4023C22.5992 22.2329 21.515 22.1583 20.4306 22.1791C19.1238 22.1791 19.059 22.0999 18.429 22.0999C17.799 22.0999 16.4022 21.9811 14.5662 21.9163C12.7302 21.8515 12.1326 21.7435 12.0462 22.1827C11.9022 23.0395 11.8806 24.0871 12.6006 24.0439Z" fill="#84AE0C"/>
<path id="Vector_33" d="M14.5692 23.641C14.5692 23.641 15.2892 23.5186 15.6924 23.407C16.0956 23.2954 16.0992 23.281 15.5016 23.0866C14.904 22.8922 14.04 22.759 14.04 23.1334C14.04 23.5078 14.1624 23.7022 14.5692 23.641Z" fill="#AAC844"/>
<path id="Vector_34" d="M12.0386 22.1831C12.0386 22.1831 11.963 22.5431 12.521 22.3739C12.8868 22.2218 13.265 22.1014 13.6514 22.0139C14.0114 21.9563 13.7774 21.9095 13.2914 21.8735C12.8054 21.8375 12.1214 21.7115 12.0386 22.1831Z" fill="#AAC844"/>
<path id="Vector_35" d="M17.8387 22.2802C17.8387 22.2802 16.8703 22.6402 16.7263 22.4674C16.5823 22.2946 16.5283 22.0462 17.0215 22.0066C17.5147 21.967 18.4867 22.0066 18.3283 22.093C18.17 22.1674 18.0063 22.2299 17.8387 22.2802Z" fill="#AAC844"/>
<path id="Vector_36" d="M19.188 23.5903C18.833 23.6711 18.4717 23.7217 18.108 23.7415C17.6832 23.7415 17.5788 23.6083 17.748 23.3275C17.9172 23.0467 18.2196 23.1655 18.5004 23.2699C18.7812 23.3743 18.9864 23.5471 19.188 23.5903Z" fill="#AAC844"/>
<path id="Vector_37" d="M22.4571 23.0185C22.4571 23.0185 22.4571 23.3209 22.9503 23.2633C23.4435 23.2057 23.9835 23.0941 23.9799 22.9861C23.9763 22.8781 23.5335 22.6477 23.0259 22.5829C22.5183 22.5181 22.3923 22.7341 22.4571 23.0185Z" fill="#9FB739"/>
<path id="Vector_38" d="M22.5829 22.4748C22.5829 22.4748 22.6297 22.7592 22.9897 22.7052C23.267 22.6555 23.5411 22.5894 23.8105 22.5072C24.0013 22.4568 23.9185 22.3632 23.6305 22.284C23.3425 22.2048 22.4281 22.0896 22.5829 22.4748Z" fill="#97A833"/>
<path id="Vector_39" d="M22.068 22.3772C22.068 22.3772 21.9312 22.1432 22.2336 22.1252C22.536 22.1072 23.2236 22.0568 23.2776 22.172C23.3316 22.2872 22.9788 22.4276 22.6872 22.5104C22.3956 22.5932 22.2156 22.6184 22.068 22.3772Z" fill="#AAC844"/>
<path id="Vector_40" d="M23.0399 22.9745C22.6868 23.0927 22.3259 23.1865 21.9599 23.2553C21.6179 23.2985 21.4847 23.2229 21.5243 22.9241C21.5639 22.6253 21.7223 22.4921 22.1039 22.5641C22.4314 22.6626 22.7456 22.8004 23.0399 22.9745Z" fill="#AAC844"/>
<path id="Vector_41" d="M21.4848 22.8305C21.4848 22.8305 20.4048 23.2877 20.2644 22.9817C20.124 22.6757 20.2104 22.4129 20.7216 22.4777C21.2328 22.5425 22.0824 22.5641 21.4848 22.8305Z" fill="#AAC844"/>
<g id="Group_2" style="mix-blend-mode:screen">
<path id="Vector_42" d="M15.84 23.6298C14.6736 23.7126 13.5036 23.6586 12.3372 23.6982C12.3156 23.6982 12.3372 23.7306 12.3552 23.7306C12.9286 23.8019 13.5054 23.8428 14.0832 23.853C14.706 23.853 15.3288 23.835 15.9516 23.8026C17.1947 23.7477 18.4307 23.5839 19.6452 23.313C19.7244 23.295 19.5804 23.1474 19.5228 23.1546C18.2736 23.277 17.0676 23.5434 15.84 23.6298Z" fill="#84AE0C"/>
<path id="Vector_43" d="M20.196 23.0573C20.0664 23.0825 19.9476 23.0573 19.836 23.1221C19.7964 23.1509 19.8756 23.2193 19.908 23.2049C20.052 23.1401 20.2068 23.2049 20.3544 23.1725C20.5342 23.1487 20.7106 23.104 20.88 23.0393C20.9412 23.0141 20.8296 22.9277 20.7936 22.9277C20.5915 22.9559 20.3917 22.9993 20.196 23.0573Z" fill="#84AE0C"/>
</g>
<g id="Group_3" style="mix-blend-mode:screen">
<path id="Vector_44" d="M16.8991 27.2196C15.7291 27.3024 14.5627 27.2484 13.3963 27.288C13.3747 27.288 13.3963 27.3204 13.3963 27.324C13.97 27.3924 14.5467 27.4321 15.1243 27.4428C15.7471 27.4428 16.3699 27.4428 16.9927 27.3924C18.2409 27.3404 19.4819 27.1766 20.7007 26.9028C20.7799 26.9028 20.6359 26.7372 20.5783 26.7444C19.3471 26.8668 18.1375 27.1368 16.8991 27.2196Z" fill="#84AE0C"/>
<path id="Vector_45" d="M21.2661 26.6396C21.1401 26.6684 21.0177 26.6396 20.9061 26.7044C20.8629 26.7332 20.9421 26.8016 20.9781 26.7872C21.1221 26.7224 21.2733 26.7872 21.4245 26.7548C21.5996 26.7342 21.7721 26.6956 21.9393 26.6396C22.0005 26.6144 21.8889 26.5244 21.8529 26.5244C21.6551 26.5505 21.4591 26.589 21.2661 26.6396Z" fill="#84AE0C"/>
</g>
<g id="Vector_46" style="mix-blend-mode:multiply">
<path d="M30.2406 14.6014C29.8374 14.4322 29.3766 14.7598 29.0634 15.0406C28.6466 15.4346 28.2725 15.8714 27.9474 16.3438C27.5874 16.8082 27.2058 17.1826 26.8386 17.6146C26.6712 17.8408 26.4909 18.0572 26.2986 18.2626C26.2352 18.256 26.1763 18.2266 26.133 18.1798C25.9746 18.0106 26.0934 17.4598 26.133 17.2582C26.2267 16.9161 26.2512 16.5587 26.205 16.207C25.9962 15.3754 25.071 16.207 24.765 16.5094C24.459 16.8118 24.2106 17.3014 23.8362 17.3374C23.4618 17.3734 23.3466 16.837 23.3358 16.477C23.3702 15.8945 23.5003 15.3216 23.721 14.7814C23.9661 13.8819 24.3052 13.0107 24.7326 12.1822C24.934 11.8816 25.0837 11.5494 25.1754 11.1994C25.2416 10.9641 25.2159 10.7123 25.1037 10.4952C24.9914 10.278 24.8009 10.1115 24.5706 10.0294C24.1638 9.93221 23.7174 10.3894 23.4546 10.6954C23.1616 11.0786 22.9275 11.5032 22.7598 11.9554C22.5654 12.427 22.4178 12.913 22.263 13.3954C22.191 13.6222 22.1154 13.8454 22.0362 14.0686C21.9574 14.3165 21.8937 14.569 21.8454 14.8246C21.8299 14.9276 21.7888 15.0251 21.7259 15.1081C21.663 15.1911 21.5803 15.257 21.4854 15.2998C21.1866 15.397 21.1686 14.7778 21.1758 14.5798C21.2182 14.0337 21.3049 13.4919 21.435 12.9598C21.5466 12.4774 21.6618 11.9878 21.795 11.5198C21.9282 11.0518 22.1262 10.5766 22.2702 10.0798C22.3854 9.69101 22.8102 8.17181 22.1946 8.05661C21.579 7.94141 21.1146 9.01421 20.787 9.52181C20.297 10.3701 19.8838 11.2604 19.5522 12.1822C19.4658 12.3946 19.3758 12.6034 19.2786 12.8086L19.1382 13.0822C19.1382 13.0822 19.023 13.2802 19.041 13.255C18.9402 13.4134 18.8394 13.5718 18.735 13.723C18.6774 13.8058 18.6126 13.8814 18.5514 13.957C18.609 13.8886 18.5514 13.939 18.4938 13.9858C18.4771 13.9831 18.4601 13.9831 18.4434 13.9858C18.4325 13.9629 18.4192 13.9412 18.4038 13.921C18.3546 13.8296 18.3194 13.7313 18.2994 13.6294C18.2239 13.1652 18.2484 12.6902 18.3714 12.2362C18.5042 11.8128 18.5958 11.3776 18.645 10.9366C18.7025 10.6442 18.7025 10.3434 18.645 10.051C18.4794 9.69101 17.4102 11.9842 17.3238 12.193C16.8054 13.4098 16.323 14.641 15.5238 15.6274C15.4014 15.7786 15.1638 16.0846 14.9838 16.1026C14.6238 16.135 14.5194 15.4834 14.4978 15.1774C14.4829 14.7154 14.5264 14.2533 14.6274 13.8022C14.8636 12.8218 15.1692 11.8594 15.5418 10.9222C15.8262 10.0978 16.2618 9.37061 16.5858 8.56781C16.7478 8.15741 16.9458 7.23581 16.4598 7.03781C16.1934 6.92981 15.8874 7.15661 15.6714 7.32941C15.3727 7.58475 15.1153 7.88469 14.9082 8.21861C14.4512 8.97471 14.0817 9.78028 13.8066 10.6198C13.3888 11.755 13.0519 12.9183 12.7986 14.101C12.7086 14.5366 12.7338 14.9974 12.633 15.4294C12.5898 15.613 12.3594 16.2034 12.165 16.1314C11.9706 16.0594 12.093 15.2422 12.1218 15.0514C12.1844 14.6281 12.2968 14.2136 12.4566 13.8166C12.543 13.6006 13.2054 12.4882 13.0038 12.2506C12.7554 11.959 12.0966 12.535 11.9634 12.7078C11.5206 13.2982 11.1102 14.3998 10.7214 15.0766C10.4874 15.4834 10.0914 16.0738 9.64137 15.739C9.19137 15.4042 9.15537 14.5042 9.28137 13.9606C9.50457 13.0498 10.2174 12.5026 10.8186 12.0022C11.2362 11.6422 12.3162 10.9618 12.3486 10.2022C12.381 9.44261 11.4198 10.0078 11.1786 10.1806C10.4001 10.7918 9.76487 11.5659 9.31737 12.4486C8.79948 13.2901 8.53108 14.2614 8.54337 15.2494C8.59377 15.9694 8.97177 16.837 9.65217 16.6894C10.4298 16.513 10.8942 15.2674 11.2542 14.5294C11.4763 14.0426 11.7264 13.5691 12.003 13.111C12.1218 12.9238 12.399 12.4126 12.6222 12.391C13.0686 12.337 12.3774 13.5898 12.2874 13.7878C11.949 14.5078 11.2506 15.6922 11.4486 16.5922C11.6106 17.3122 12.2694 17.0278 12.597 16.6534C13.0938 16.0882 13.2486 15.2134 13.3782 14.4394C13.7094 12.4306 13.9578 10.3678 15.0234 8.72261C15.1854 8.47061 15.7002 7.55981 16.0242 7.75421C16.3482 7.94861 15.873 8.60381 15.7578 8.80541C15.459 9.35193 15.1956 9.9171 14.9694 10.4974C14.4997 11.5394 14.168 12.6383 13.983 13.7662C13.8606 14.6122 13.6878 16.1566 14.451 16.6462C15.1278 17.089 15.7398 16.0702 16.107 15.4978C16.5966 14.731 16.8738 13.7878 17.241 12.931C17.007 13.7698 16.9746 14.767 17.4318 15.487C17.7234 15.9406 18.285 15.8218 18.6522 15.6418C19.0835 15.374 19.4411 15.0028 19.6926 14.5618C20.2182 13.7662 20.4378 12.7618 20.6574 11.779C20.7582 11.3218 20.8518 10.8574 20.9706 10.4038C21.0959 9.93728 21.2773 9.48762 21.5106 9.06461C21.5948 8.88965 21.708 8.7302 21.8454 8.59301C22.1262 8.32301 22.2054 8.75141 22.227 8.99981C22.2119 9.52946 22.1035 10.0523 21.9066 10.5442C21.6011 11.5031 21.3475 12.4777 21.147 13.4638C21.0645 13.8923 21.0056 14.3249 20.9706 14.7598C20.9428 14.9103 20.954 15.0654 21.0032 15.2104C21.0523 15.3553 21.1378 15.4852 21.2514 15.5878C21.6906 15.9118 22.1982 15.2674 22.4574 14.9074C22.8644 14.3453 23.1971 13.7331 23.4474 13.0858C23.5194 12.8986 23.5482 12.6898 23.6346 12.5134C23.721 12.337 23.937 12.1534 23.9694 12.5134C23.9606 12.7578 23.9195 12.9999 23.847 13.2334C23.7923 13.6158 23.7093 13.9937 23.5986 14.3638C23.451 14.8462 23.3358 15.3358 23.2386 15.8326C23.1018 16.4986 22.7778 17.6902 23.5482 17.9926C23.9082 18.133 24.2682 17.8378 24.5742 17.6326C24.7542 17.4958 24.9342 17.3518 25.1142 17.2006C25.2018 17.1186 25.2971 17.0451 25.3986 16.981C25.3986 17.0422 25.3698 17.1034 25.3626 17.1502C25.3279 17.3453 25.3075 17.5426 25.3014 17.7406C25.262 18.0775 25.3117 18.4189 25.4454 18.7306C25.7766 19.3426 26.4246 19.0186 26.8242 18.7306C27.8574 17.9602 28.491 16.5238 29.553 15.7534C29.7078 15.6526 29.6718 16.1818 29.7438 16.2502C30.3306 16.747 31.1046 14.9578 30.2406 14.6014Z" fill="#EBEAEA"/>
</g>
<g id="Vector_47" style="mix-blend-mode:multiply">
<path d="M29.2795 17.0166C29.1155 17.1914 29.0033 17.4082 28.9555 17.643C28.9393 17.76 28.969 17.8787 29.0383 17.9742C29.0475 17.9888 29.0598 18.0011 29.0743 18.0102C29.0893 18.032 29.11 18.0492 29.1341 18.06C29.1582 18.0708 29.1849 18.0748 29.2111 18.0714C29.398 18.0587 29.5742 17.9796 29.7079 17.8482L29.7799 17.769L29.8195 17.7222C29.8794 17.6421 29.9245 17.5519 29.9527 17.4558C29.9817 17.3713 29.989 17.2809 29.9739 17.1928C29.9588 17.1047 29.9218 17.0219 29.8663 16.9518C29.6863 16.7394 29.4487 16.8366 29.2795 17.0166Z" fill="#EBEAEA"/>
</g>
<g id="Vector_48" style="mix-blend-mode:multiply">
<path d="M28.7357 18.4601C28.7168 18.456 28.6971 18.456 28.6781 18.4601C28.6471 18.4605 28.6165 18.4671 28.5881 18.4795C28.5597 18.4918 28.534 18.5097 28.5125 18.5321C28.4725 18.5667 28.4405 18.6097 28.4189 18.6581C28.3954 18.7041 28.3807 18.7542 28.3757 18.8057C28.3721 18.8308 28.3721 18.8562 28.3757 18.8813C28.3796 18.9023 28.3856 18.9228 28.3937 18.9425C28.3967 18.9559 28.4024 18.9686 28.4104 18.9797C28.4185 18.9909 28.4287 19.0003 28.4405 19.0073C28.4546 19.0201 28.4704 19.031 28.4873 19.0397C28.5405 19.0567 28.5978 19.0552 28.6501 19.0356C28.7023 19.016 28.7464 18.9794 28.7753 18.9317C28.8316 18.8508 28.8571 18.7525 28.8473 18.6545C28.8484 18.6004 28.832 18.5474 28.8005 18.5033C28.7931 18.4922 28.7836 18.4826 28.7725 18.4752C28.7614 18.4678 28.7489 18.4626 28.7357 18.4601Z" fill="#EBEAEA"/>
</g>
<path id="Vector_49" opacity="0.6" d="M30.0925 14.5226C29.6893 14.357 29.2285 14.6846 28.9153 14.9654C28.5004 15.3598 28.1265 15.7952 27.7993 16.265C27.4393 16.733 27.0577 17.1074 26.6905 17.5394C26.5245 17.7656 26.3454 17.982 26.1541 18.1874C26.0894 18.1817 26.0292 18.1522 25.9849 18.1046C25.8265 17.9354 25.9489 17.3846 25.9849 17.1794C26.0805 16.8376 26.1051 16.4798 26.0569 16.1282C25.8481 15.3002 24.9265 16.1462 24.6169 16.4342C24.3073 16.7222 24.0625 17.2262 23.6881 17.2586C23.3137 17.291 23.1985 16.7582 23.1877 16.3982C23.2241 15.8171 23.3542 15.2457 23.5729 14.7062C23.8194 13.8066 24.1597 12.9355 24.5881 12.107C24.787 11.8054 24.9353 11.4735 25.0273 11.1242C25.0946 10.8893 25.0699 10.6376 24.9582 10.4203C24.8465 10.2029 24.6563 10.0363 24.4261 9.9542C24.0157 9.857 23.5693 10.3142 23.3065 10.6202C23.0091 11.0022 22.7712 11.427 22.6009 11.8802C22.4065 12.3482 22.2409 12.8342 22.1041 13.3202C22.0321 13.5482 21.9565 13.7714 21.8773 13.9898C21.799 14.2378 21.7353 14.4903 21.6865 14.7458C21.6716 14.8494 21.6308 14.9476 21.5679 15.0313C21.505 15.115 21.4219 15.1815 21.3265 15.2246C21.0241 15.3182 21.0061 14.699 21.0169 14.5046C21.0628 13.9586 21.1568 13.4177 21.2977 12.8882C21.4057 12.4022 21.5209 11.9162 21.6577 11.4482C21.7945 10.9802 21.9925 10.505 22.1329 10.0082C22.2481 9.6194 22.6729 8.0966 22.0573 7.9814C21.4417 7.8662 20.9773 8.9426 20.6497 9.4502C20.1598 10.2985 19.7465 11.1888 19.4149 12.1106C19.3285 12.323 19.2385 12.5318 19.1413 12.737L19.0009 13.007C19.0009 13.007 18.8857 13.205 18.9037 13.1834C18.8029 13.3418 18.7021 13.4966 18.5977 13.6478C18.5401 13.7306 18.4753 13.8062 18.4141 13.8818C18.4717 13.817 18.4141 13.8638 18.3565 13.9142L18.3061 13.8926C18.2948 13.8711 18.2815 13.8506 18.2665 13.8314C18.217 13.7392 18.1829 13.6395 18.1657 13.5362C18.0869 13.0722 18.1115 12.5964 18.2377 12.143C18.3673 11.7202 18.4577 11.2864 18.5077 10.847C18.5653 10.5534 18.5653 10.2514 18.5077 9.9578C18.3457 9.5978 17.2729 11.8946 17.1865 12.1178C16.6681 13.3346 16.1893 14.5658 15.3865 15.5522C15.2677 15.6998 15.0265 16.0094 14.8465 16.0274C14.4865 16.0598 14.3821 15.4082 14.3605 15.0986C14.3458 14.6366 14.3893 14.1745 14.4901 13.7234C14.7284 12.7435 15.034 11.7813 15.4045 10.8434C15.6889 10.019 16.1245 9.2918 16.4485 8.4854C16.6105 8.0786 16.8085 7.157 16.3261 6.959C16.0561 6.851 15.7501 7.0742 15.5377 7.2506C15.2381 7.50595 14.9795 7.80585 14.7709 8.1398C14.317 8.8998 13.951 9.70901 13.6801 10.5518C13.2635 11.6889 12.9302 12.8547 12.6829 14.0402C12.5929 14.4758 12.6145 14.9366 12.5137 15.3686C12.4741 15.5522 12.2437 16.1426 12.0457 16.067C11.8477 15.9914 11.9737 15.1814 12.0061 14.987C12.0654 14.5634 12.1766 14.1486 12.3373 13.7522C12.4237 13.5362 13.0861 12.4238 12.8845 12.1862C12.6829 11.9486 11.8801 12.8054 11.7361 12.9782C11.3002 13.6237 10.9116 14.2998 10.5733 15.0014C10.3393 15.4046 9.94693 15.9986 9.49333 15.6602C9.03973 15.3218 9.00733 14.429 9.13333 13.8818C9.35653 12.971 10.0693 12.4418 10.6705 11.927C11.0917 11.567 12.1681 10.8866 12.2005 10.127C12.2329 9.3674 11.2717 9.9326 11.0305 10.1054C10.2534 10.7179 9.61838 11.4917 9.16933 12.3734C8.65252 13.2152 8.38536 14.1865 8.39893 15.1742C8.44573 15.8942 8.82373 16.7618 9.50773 16.6142C10.2817 16.4378 10.7497 15.1922 11.1097 14.4542C11.3374 13.9662 11.5947 13.4925 11.8801 13.0358C12.0025 12.8486 12.2797 12.3158 12.4993 12.3158C12.9493 12.2618 12.2581 13.5146 12.1645 13.7126C11.8297 14.4326 11.1277 15.6134 11.3257 16.5134C11.4913 17.2334 12.1465 16.9526 12.4777 16.5782C12.9709 16.0094 13.1257 15.1382 13.2553 14.3642C13.5793 12.3482 13.8241 10.2854 14.8897 8.6402C15.0517 8.3882 15.5665 7.4738 15.8941 7.6682C16.2217 7.8626 15.7429 8.5178 15.6241 8.723C15.326 9.26863 15.0627 9.83256 14.8357 10.4114C14.3663 11.4535 14.0347 12.5524 13.8493 13.6802C13.7269 14.5262 13.5541 16.0706 14.3173 16.5602C14.9977 16.9994 15.6061 15.9806 15.9733 15.4118C16.4665 14.645 16.7401 13.7018 17.1073 12.845C16.8733 13.6838 16.8409 14.681 17.3017 15.401C17.5933 15.8546 18.1513 15.7322 18.5221 15.5558C18.9511 15.2851 19.3081 14.9146 19.5625 14.4758C20.0845 13.6766 20.3041 12.6758 20.5237 11.693C20.6245 11.2358 20.7181 10.7714 20.8369 10.3178C20.9655 9.85233 21.1466 9.40303 21.3769 8.9786C21.4624 8.80438 21.5754 8.64512 21.7117 8.507C21.9925 8.237 22.0717 8.6618 22.0933 8.9138C22.077 9.43711 21.9698 9.9536 21.7765 10.4402C21.4732 11.3984 21.2196 12.3717 21.0169 13.3562C20.9357 13.7859 20.878 14.2198 20.8441 14.6558C20.8167 14.8063 20.8281 14.9613 20.8772 15.1062C20.9264 15.2511 21.0116 15.381 21.1249 15.4838C21.5605 15.8078 22.0681 15.1634 22.3309 14.8034C22.7345 14.2392 23.067 13.6274 23.3209 12.9818C23.3736 12.7868 23.436 12.5945 23.5081 12.4058C23.6053 12.2078 23.8069 12.0458 23.8393 12.4058C23.83 12.6498 23.79 12.8917 23.7205 13.1258C23.6621 13.5075 23.5791 13.8851 23.4721 14.2562C23.3209 14.735 23.2093 15.2282 23.1121 15.725C22.9717 16.391 22.6477 17.5826 23.4181 17.885C23.7781 18.0254 24.1381 17.7266 24.4441 17.525C24.6277 17.3882 24.8041 17.2406 24.9841 17.0894C25.0735 17.0105 25.1686 16.9383 25.2685 16.8734C25.2685 16.9346 25.2433 16.9922 25.2325 17.0426C25.1962 17.2399 25.1745 17.4397 25.1677 17.6402C25.127 17.9771 25.1767 18.3188 25.3117 18.6302C26.0533 20.0162 27.6985 17.597 28.1917 16.931C28.4328 16.5875 28.7185 16.2776 29.0413 16.0094C29.1169 15.9518 29.2753 15.7574 29.4301 15.6494C29.5849 15.5486 29.5489 16.0778 29.6209 16.1462C30.1825 16.6718 30.9601 14.8826 30.0925 14.5226Z" fill="#A96A26"/>
<path id="Vector_50" opacity="0.4" d="M29.7178 16.8767C29.5378 16.6643 29.3002 16.7615 29.1346 16.9415C28.9674 17.1125 28.8547 17.3292 28.8106 17.5642C28.801 17.6225 28.8031 17.6821 28.8167 17.7396C28.8303 17.7971 28.8551 17.8513 28.8898 17.8991C28.9012 17.9129 28.9146 17.925 28.9294 17.935C28.9435 17.9568 28.9636 17.9742 28.9871 17.985C29.0107 17.9958 29.0369 17.9997 29.0626 17.9963C29.2497 17.9842 29.4261 17.9049 29.5594 17.773L29.635 17.6902L29.6746 17.647C29.7313 17.5655 29.775 17.4756 29.8042 17.3806C29.8336 17.2962 29.8411 17.2057 29.8259 17.1175C29.8108 17.0294 29.7736 16.9465 29.7178 16.8767Z" fill="#A96A26"/>
<path id="Vector_51" opacity="0.4" d="M28.6488 18.4281C28.6337 18.4066 28.6123 18.3903 28.5876 18.3813C28.5687 18.3768 28.549 18.3768 28.53 18.3813C28.499 18.3817 28.4684 18.3883 28.44 18.4006C28.4116 18.413 28.3859 18.4309 28.3644 18.4533C28.3236 18.4872 28.2915 18.5304 28.2708 18.5793C28.2489 18.6259 28.2344 18.6757 28.2276 18.7269C28.2223 18.7518 28.2223 18.7775 28.2276 18.8025C28.2259 18.8228 28.2259 18.8433 28.2276 18.8637C28.2372 18.89 28.2548 18.9127 28.278 18.9285C28.2917 18.9409 28.3076 18.9507 28.3248 18.9573C28.377 18.975 28.4337 18.9743 28.4855 18.9553C28.5372 18.9363 28.5809 18.9001 28.6092 18.8529C28.6664 18.7723 28.6932 18.6741 28.6848 18.5757C28.687 18.5241 28.6745 18.4729 28.6488 18.4281Z" fill="#A96A26"/>
<g id="Group_4" style="mix-blend-mode:screen">
<g id="Vector_52" style="mix-blend-mode:screen" opacity="0.4">
<path d="M11.9342 9.96851C11.3913 10.1208 10.8959 10.4081 10.4942 10.8037C10.0365 11.298 9.65437 11.8573 9.36016 12.4633C9.33136 12.5137 9.38176 12.5389 9.41056 12.5029C9.58696 12.2797 9.73096 12.0241 9.90376 11.7829C10.0964 11.5325 10.3019 11.2922 10.5194 11.0629C10.9515 10.6431 11.4354 10.2802 11.9594 9.98291C11.9594 9.98291 11.9558 9.95771 11.9342 9.96851Z" fill="white"/>
</g>
<g id="Vector_53" style="mix-blend-mode:screen" opacity="0.4">
<path d="M9.43923 16.2468C9.31349 16.233 9.19301 16.1888 9.08825 16.1179C8.98348 16.047 8.89759 15.9516 8.83803 15.84C8.67066 15.5761 8.58084 15.2705 8.57883 14.958H8.55723C8.51763 15.5952 8.81283 16.398 9.41763 16.3332C9.45363 16.344 9.48963 16.254 9.43923 16.2468Z" fill="white"/>
</g>
<g id="Vector_54" style="mix-blend-mode:screen" opacity="0.4">
<path d="M12.3555 16.3046C12.1791 16.4558 11.8587 16.643 11.6571 16.4522C11.6571 16.4522 11.6355 16.4522 11.6391 16.4522C11.6477 16.4902 11.6641 16.526 11.6873 16.5573C11.7105 16.5886 11.74 16.6148 11.7739 16.6341C11.8077 16.6534 11.8453 16.6654 11.884 16.6694C11.9228 16.6734 11.962 16.6693 11.9991 16.6574C12.1631 16.6014 12.3029 16.4909 12.3951 16.3442C12.4239 16.3262 12.3951 16.2686 12.3555 16.3046Z" fill="white"/>
</g>
<g id="Vector_55" style="mix-blend-mode:screen" opacity="0.4">
<path d="M18.2916 14.0909C17.388 14.0405 18.3816 11.1389 18.3996 10.5701C18.3996 10.5485 18.378 10.5701 18.378 10.5701C18.2699 11.006 18.1365 11.4351 17.9784 11.8553C17.8683 12.2078 17.7888 12.5692 17.7408 12.9353C17.7012 13.3493 17.7408 14.3357 18.2808 14.1449C18.2988 14.1485 18.324 14.0945 18.2916 14.0909Z" fill="white"/>
</g>
<g id="Vector_56" style="mix-blend-mode:screen" opacity="0.4">
<path d="M19.5513 14.0399C19.3813 14.3457 19.1554 14.6168 18.8853 14.8391C18.8421 14.8859 18.8601 14.9687 18.9177 14.9219C19.2359 14.7164 19.4697 14.4034 19.5765 14.0399C19.5837 14.0075 19.5585 14.0075 19.5513 14.0399Z" fill="white"/>
</g>
<g id="Vector_57" style="mix-blend-mode:screen" opacity="0.4">
<path d="M24.5626 10.1774C24.1522 9.97935 23.8174 10.2602 23.5078 10.577C23.5078 10.577 23.5078 10.6346 23.5078 10.6166C23.7106 10.4471 23.9638 10.3496 24.2278 10.3394C24.5158 10.3394 24.703 10.8578 24.6778 11.1674C24.6778 11.2106 24.7174 11.1998 24.7282 11.1674C24.8614 10.883 24.865 10.325 24.5626 10.1774Z" fill="white"/>
</g>
<g id="Vector_58" style="mix-blend-mode:screen" opacity="0.4">
<path d="M24.4983 11.6496C24.4731 11.7 24.4371 11.7504 24.4119 11.8008C24.3867 11.8512 24.4119 11.8836 24.4335 11.8872C24.4551 11.8908 24.5019 11.8476 24.5055 11.808C24.5091 11.7684 24.5055 11.7036 24.5055 11.6496C24.5055 11.5956 24.5019 11.6388 24.4983 11.6496Z" fill="white"/>
</g>
<g id="Vector_59" style="mix-blend-mode:screen" opacity="0.4">
<path d="M26.4135 18.3815C26.1003 18.5291 25.7619 18.6983 25.5315 18.2915C25.401 17.9335 25.3494 17.5516 25.3803 17.1719C25.3227 17.6651 25.2003 18.1403 25.4811 18.5615C25.7619 18.9827 26.2011 18.7163 26.4531 18.4751C26.4783 18.4427 26.4747 18.3599 26.4135 18.3815Z" fill="white"/>
</g>
<g id="Group_5" style="mix-blend-mode:screen" opacity="0.4">
<path id="Vector_60" d="M29.5671 17.0139C29.5613 16.9828 29.5448 16.9546 29.5205 16.9343C29.4962 16.9139 29.4656 16.9026 29.4339 16.9023C29.3792 16.9139 29.3273 16.9365 29.2815 16.9687C29.2358 17.0008 29.197 17.042 29.1675 17.0895C29.1099 17.1687 29.0019 17.3379 29.0631 17.4495C29.0661 17.4935 29.081 17.5359 29.1063 17.5719C29.1675 17.6727 29.2971 17.5719 29.3583 17.5251C29.3956 17.4875 29.4293 17.4465 29.4591 17.4027C29.4744 17.38 29.4877 17.3559 29.4987 17.3307C29.4699 17.3919 29.5239 17.2911 29.5239 17.2875C29.5488 17.2471 29.5655 17.202 29.5729 17.1551C29.5803 17.1081 29.5783 17.0601 29.5671 17.0139Z" fill="white"/>
</g>
<g id="Vector_61" style="mix-blend-mode:screen" opacity="0.4">
<path d="M28.4585 18.4358C28.4318 18.4469 28.41 18.4673 28.3973 18.4934C28.3973 18.5186 28.3757 18.569 28.3973 18.5906C28.4333 18.6338 28.4765 18.5906 28.4981 18.5402C28.5197 18.4898 28.5125 18.425 28.4585 18.4358Z" fill="white"/>
</g>
<g id="Vector_62" style="mix-blend-mode:screen" opacity="0.4">
<path d="M30.0492 15.1852C30.0361 15.1711 30.0202 15.1599 30.0025 15.1522C29.9849 15.1446 29.9659 15.1406 29.9466 15.1406C29.9274 15.1406 29.9083 15.1446 29.8907 15.1522C29.873 15.1599 29.8572 15.1711 29.844 15.1852C29.7982 15.2202 29.76 15.264 29.7315 15.3141C29.703 15.3642 29.685 15.4195 29.6784 15.4768C29.6719 15.5049 29.6711 15.5341 29.676 15.5625C29.681 15.5909 29.6916 15.6181 29.7072 15.6424C29.7229 15.6609 29.7426 15.6757 29.7648 15.6856C29.7828 15.698 29.8042 15.7046 29.826 15.7046C29.8479 15.7046 29.8692 15.698 29.8872 15.6856C29.9581 15.6395 30.0134 15.573 30.0456 15.4948C30.0723 15.4477 30.0867 15.3946 30.0873 15.3404C30.0879 15.2863 30.0748 15.2329 30.0492 15.1852Z" fill="white"/>
</g>
</g>
<path id="Vector_63" opacity="0.4" d="M10.7174 11.293C10.6454 11.293 10.577 11.473 10.667 11.4694C10.757 11.4658 10.8002 11.293 10.7174 11.293Z" fill="#7B4E19"/>
<path id="Vector_64" opacity="0.4" d="M11.3191 10.7998C11.2651 10.7998 11.2147 10.933 11.2831 10.9294C11.3515 10.9258 11.3875 10.7998 11.3191 10.7998Z" fill="#7B4E19"/>
<path id="Vector_65" opacity="0.4" d="M9.37871 12.6572C9.34631 12.6572 9.31751 12.7328 9.35711 12.7328C9.39671 12.7328 9.41471 12.6572 9.37871 12.6572Z" fill="#7B4E19"/>
<path id="Vector_66" opacity="0.4" d="M9.00051 13.8125C8.98251 13.8125 8.95731 13.8125 8.94651 13.8341V13.8557C8.92851 13.8881 8.94651 13.9169 8.98251 13.8917C8.98976 13.8885 8.99617 13.8837 9.00122 13.8776C9.00626 13.8716 9.0098 13.8644 9.01155 13.8567C9.01331 13.8489 9.01322 13.8409 9.0113 13.8333C9.00938 13.8256 9.00569 13.8185 9.00051 13.8125Z" fill="#7B4E19"/>
<path id="Vector_67" opacity="0.4" d="M10.1269 15.9834C10.0801 15.9294 10.0189 16.0194 10.0117 16.0734C10.0117 16.113 10.0333 16.1382 10.0621 16.131C10.1125 16.1238 10.1737 16.0338 10.1269 15.9834Z" fill="#7B4E19"/>
<path id="Vector_68" opacity="0.4" d="M9.63721 16.2002C9.61201 16.2002 9.59041 16.2578 9.61921 16.2578C9.64801 16.2578 9.66601 16.2002 9.63721 16.2002Z" fill="#7B4E19"/>
<path id="Vector_69" opacity="0.4" d="M12.6 16.0088C12.5676 16.0088 12.5352 16.0916 12.5784 16.0916C12.6216 16.0916 12.6252 16.0088 12.6 16.0088Z" fill="#7B4E19"/>
<path id="Vector_70" opacity="0.4" d="M12.8378 14.7598C12.826 14.7639 12.8155 14.7711 12.8072 14.7806C12.799 14.79 12.7934 14.8015 12.791 14.8138C12.791 14.8606 12.791 14.8894 12.8414 14.8714C12.8577 14.8622 12.8708 14.8484 12.8791 14.8317C12.8875 14.815 12.8906 14.7963 12.8882 14.7778C12.881 14.7598 12.8558 14.7598 12.8378 14.7598Z" fill="#7B4E19"/>
<path id="Vector_71" opacity="0.4" d="M16.3769 8.19324C16.3769 8.19324 16.4129 8.19324 16.4273 8.17164C16.4957 8.06004 16.3049 8.13204 16.3769 8.19324Z" fill="#7B4E19"/>
<path id="Vector_72" opacity="0.4" d="M16.3116 7.38326C16.2936 7.38326 16.2792 7.38326 16.2684 7.38326C16.2634 7.39599 16.2634 7.41014 16.2684 7.42286C16.2864 7.46246 16.3296 7.42287 16.3368 7.39407C16.344 7.36527 16.326 7.39046 16.3116 7.38326Z" fill="#7B4E19"/>
<path id="Vector_73" opacity="0.4" d="M14.9547 16.2002C14.8971 16.2002 14.8395 16.3406 14.9115 16.337C14.9835 16.3334 15.0231 16.2002 14.9547 16.2002Z" fill="#7B4E19"/>
<path id="Vector_74" opacity="0.4" d="M14.3318 16.1709C14.2922 16.1709 14.2526 16.2753 14.3066 16.2717C14.3606 16.2681 14.4002 16.1709 14.3318 16.1709Z" fill="#7B4E19"/>
<path id="Vector_75" opacity="0.4" d="M19.5302 13.5175C19.5086 13.4923 19.4762 13.5175 19.4582 13.5355C19.4486 13.5485 19.4434 13.5643 19.4434 13.5805C19.4434 13.5967 19.4486 13.6124 19.4582 13.6255C19.4834 13.6507 19.5158 13.6255 19.5302 13.6255V13.6075C19.5399 13.5944 19.5451 13.5787 19.5451 13.5625C19.5451 13.5463 19.5399 13.5305 19.5302 13.5175Z" fill="#7B4E19"/>
<path id="Vector_76" opacity="0.4" d="M18.4973 14.8535C18.4469 14.8535 18.3965 14.9831 18.4613 14.9831C18.5261 14.9831 18.5657 14.8535 18.4973 14.8535Z" fill="#7B4E19"/>
<path id="Vector_77" opacity="0.4" d="M17.6398 14.623C17.6002 14.623 17.5642 14.7166 17.611 14.7166C17.6578 14.7166 17.6938 14.623 17.6398 14.623Z" fill="#7B4E19"/>
<path id="Vector_78" opacity="0.4" d="M17.6406 14.1045C17.6046 14.1045 17.5722 14.1909 17.6154 14.1873C17.6586 14.1837 17.6982 14.1045 17.6406 14.1045Z" fill="#7B4E19"/>
<path id="Vector_79" opacity="0.4" d="M17.7988 15.3686C17.7939 15.3658 17.7883 15.3643 17.7826 15.3643C17.7769 15.3643 17.7714 15.3658 17.7664 15.3686C17.7484 15.3902 17.7484 15.4478 17.7664 15.4406C17.7844 15.4334 17.8348 15.3902 17.7988 15.3686Z" fill="#7B4E19"/>
<path id="Vector_80" opacity="0.4" d="M21.006 9.24414C20.9736 9.24414 20.9484 9.31974 20.9844 9.31614C21.0204 9.31254 21.0456 9.24414 21.006 9.24414Z" fill="#7B4E19"/>
<path id="Vector_81" opacity="0.4" d="M20.7108 9.96053C20.7108 9.91373 20.628 9.96053 20.6352 10.0181C20.6424 10.0757 20.6352 10.0613 20.6748 10.0613C20.7144 10.0613 20.7504 9.97853 20.7108 9.96053Z" fill="#7B4E19"/>
<path id="Vector_82" opacity="0.4" d="M22.5688 13.9066C22.5688 13.9066 22.5688 13.885 22.5472 13.885C22.5184 13.8562 22.4824 13.8562 22.4932 13.9498C22.4932 13.9498 22.4932 13.9498 22.5148 13.9498C22.5904 13.9894 22.5868 13.9426 22.5688 13.9066Z" fill="#7B4E19"/>
<path id="Vector_83" opacity="0.4" d="M22.0896 13.874C22.0356 13.874 21.9852 14.0072 22.0536 14.0036C22.122 14 22.158 13.874 22.0896 13.874Z" fill="#7B4E19"/>
<path id="Vector_84" opacity="0.4" d="M23.7135 11.4258C23.6775 11.4258 23.6415 11.5194 23.6883 11.5194C23.7351 11.5194 23.7603 11.4258 23.7135 11.4258Z" fill="#7B4E19"/>
<path id="Vector_85" opacity="0.4" d="M24.2174 10.9189C24.167 10.9189 24.1202 11.0413 24.185 11.0377C24.2498 11.0341 24.2786 10.9189 24.2174 10.9189Z" fill="#7B4E19"/>
<path id="Vector_86" opacity="0.4" d="M24.0769 12.5029C24.0373 12.5029 23.9977 12.6037 24.0481 12.6037C24.0985 12.6037 24.1201 12.5029 24.0769 12.5029Z" fill="#7B4E19"/>
<path id="Vector_87" opacity="0.4" d="M24.3146 17.2578C24.2678 17.2578 24.2246 17.3586 24.2678 17.3766C24.311 17.3946 24.365 17.3766 24.3578 17.3118C24.3574 17.2993 24.353 17.2873 24.3452 17.2776C24.3374 17.2679 24.3267 17.2609 24.3146 17.2578Z" fill="#7B4E19"/>
<path id="Vector_88" opacity="0.4" d="M23.7599 17.3953C23.7383 17.3737 23.7131 17.3953 23.6987 17.3953V17.4133C23.6908 17.4244 23.6865 17.4376 23.6865 17.4511C23.6865 17.4647 23.6908 17.4779 23.6987 17.4889C23.6987 17.5105 23.7455 17.4889 23.7599 17.4889V17.4709C23.7669 17.4596 23.7706 17.4465 23.7706 17.4331C23.7706 17.4198 23.7669 17.4067 23.7599 17.3953Z" fill="#7B4E19"/>
<path id="Vector_89" opacity="0.4" d="M25.6758 17.3877C25.6326 17.3877 25.5894 17.4993 25.6434 17.4993C25.6974 17.4993 25.7334 17.3877 25.6758 17.3877Z" fill="#7B4E19"/>
<path id="Vector_90" opacity="0.4" d="M25.9888 18.3096C25.9672 18.3096 25.9456 18.3672 25.9888 18.3672C26.032 18.3672 26.0176 18.3096 25.9888 18.3096Z" fill="#7B4E19"/>
<path id="Vector_91" opacity="0.4" d="M27.8245 16.7832C27.7813 16.7832 27.7417 16.884 27.7957 16.884C27.8497 16.884 27.8749 16.7832 27.8245 16.7832Z" fill="#7B4E19"/>
<path id="Vector_92" opacity="0.4" d="M27.267 17.3877C27.2346 17.3877 27.2022 17.4741 27.2454 17.4741C27.2886 17.4741 27.3102 17.3877 27.267 17.3877Z" fill="#7B4E19"/>
<path id="Vector_93" opacity="0.4" d="M28.8004 15.667C28.75 15.667 28.7032 15.7858 28.7644 15.7858C28.8256 15.7858 28.876 15.667 28.8004 15.667Z" fill="#7B4E19"/>
<path id="Vector_94" opacity="0.4" d="M29.3586 14.8825C29.3586 14.9149 29.3946 14.8825 29.3946 14.8825C29.3946 14.8393 29.355 14.8573 29.3586 14.8825Z" fill="#7B4E19"/>
<path id="Vector_95" opacity="0.4" d="M29.2612 17.7292C29.2612 17.7652 29.3116 17.7292 29.3152 17.7076C29.3332 17.6392 29.2432 17.6644 29.2612 17.7292Z" fill="#7B4E19"/>
<path id="Vector_96" opacity="0.4" d="M29.6864 17.3262C29.6864 17.3262 29.6648 17.3542 29.6864 17.3542C29.708 17.3542 29.7008 17.3262 29.6864 17.3262Z" fill="#7B4E19"/>
<path id="Vector_97" opacity="0.4" d="M28.5123 18.5615C28.4619 18.5615 28.4151 18.6803 28.4763 18.6803C28.5375 18.6803 28.5735 18.5615 28.5123 18.5615Z" fill="#7B4E19"/>
<path id="Vector_98" opacity="0.4" d="M13.2157 13.1758C13.2157 13.1758 13.1869 13.1758 13.1797 13.1758C13.1797 13.201 13.1797 13.237 13.2013 13.2298C13.2229 13.2226 13.2337 13.201 13.2157 13.1758Z" fill="#7B4E19"/>
<path id="Vector_99" opacity="0.4" d="M13.3743 11.8799C13.3311 11.8799 13.2915 11.9807 13.3455 11.9807C13.3995 11.9807 13.4283 11.8799 13.3743 11.8799Z" fill="#7B4E19"/>
<path id="Vector_100" opacity="0.4" d="M11.1965 14.0396C11.1965 14.0036 11.1425 14.0396 11.1353 14.0648C11.1311 14.0712 11.1289 14.0787 11.1289 14.0864C11.1289 14.0941 11.1311 14.1016 11.1353 14.108C11.1353 14.108 11.1641 14.108 11.1713 14.108C11.1791 14.1076 11.1866 14.105 11.1928 14.1004C11.1991 14.0958 11.2039 14.0894 11.2065 14.0821C11.2092 14.0749 11.2097 14.0669 11.2079 14.0594C11.2061 14.0518 11.2022 14.0449 11.1965 14.0396Z" fill="#7B4E19"/>
<path id="Vector_101" opacity="0.4" d="M9.02567 15.5625C8.98247 15.5625 8.94287 15.6669 8.99687 15.6633C9.05087 15.6597 9.07607 15.5625 9.02567 15.5625Z" fill="#7B4E19"/>
<path id="Vector_102" opacity="0.4" d="M8.76947 15.0479C8.71187 15.0479 8.65787 15.1919 8.72987 15.1883C8.80187 15.1847 8.84147 15.0479 8.76947 15.0479Z" fill="#7B4E19"/>
<path id="Vector_103" d="M25.9199 13.68C26.0552 13.5331 26.2243 13.4216 26.4125 13.3551C26.6008 13.2886 26.8024 13.2691 26.9999 13.2984C27.7199 13.3884 28.3895 13.8492 28.3247 14.0184C28.2599 14.1876 27.6299 14.238 27.6299 14.238L25.9199 13.68Z" fill="#AA6102"/>
<path id="Vector_104" d="M26.7339 13.2911C26.5252 13.396 26.3305 13.5266 26.1543 13.6799C26.3379 13.5395 26.5143 13.4243 26.7267 13.2983C26.7483 13.3199 26.7627 13.2767 26.7339 13.2911Z" fill="#8E4F03"/>
<path id="Vector_105" d="M27.1663 13.3521C26.9052 13.4529 26.6621 13.5952 26.4463 13.7733C26.4463 13.7733 26.4463 13.8093 26.4463 13.7985C26.6754 13.6446 26.9162 13.5085 27.1663 13.3917C27.1663 13.3917 27.1951 13.3413 27.1663 13.3521Z" fill="#8E4F03"/>
<path id="Vector_106" d="M27.6449 13.5284C27.3551 13.6138 27.084 13.7531 26.8457 13.9388C26.8457 13.964 26.8457 13.9388 26.8457 13.9388C27.0971 13.7882 27.3608 13.6593 27.6341 13.5536C27.6341 13.5536 27.6773 13.5176 27.6449 13.5284Z" fill="#8E4F03"/>
<path id="Vector_107" d="M28.0332 13.7517C27.8928 13.7949 27.756 13.8453 27.6192 13.8993C27.4824 13.9533 27.3888 14.0253 27.2592 14.0721C27.2592 14.0721 27.234 14.1009 27.2592 14.1009C27.3646 14.0692 27.466 14.0257 27.5616 13.9713C27.7128 13.9065 27.8676 13.8561 28.0188 13.7877C28.0368 13.7841 28.08 13.7409 28.0332 13.7517Z" fill="#8E4F03"/>
<path id="Vector_108" d="M30.4746 16.783C30.8762 16.861 31.2701 16.9743 31.6518 17.1214C32.8722 17.647 33.4518 17.6938 33.6066 17.6182C33.8381 17.4374 34.0018 17.1837 34.071 16.8982C34.071 16.8046 33.8478 16.693 33.7362 16.6354C32.7478 16.2798 31.705 16.0995 30.6546 16.1026C30.6244 16.3362 30.5639 16.565 30.4746 16.783Z" fill="#AA6102"/>
<path id="Vector_109" d="M34.0991 16.5816C34.1927 16.5564 34.3619 15.0552 34.3619 14.9256C34.3619 14.8644 34.2071 14.8464 34.0451 14.8428C32.7203 14.9688 31.0931 15.3 30.6143 15.4008C30.6776 15.6354 30.6911 15.8806 30.6539 16.1208C31.7042 16.1177 32.7471 16.298 33.7355 16.6536L33.6599 16.6212C33.6599 16.6212 34.0019 16.6032 34.0991 16.5816Z" fill="#864000"/>
<path id="Vector_110" d="M33.2174 13.2948C33.2174 13.2948 33.9734 13.1148 33.9374 12.9348C33.8401 12.6444 33.6353 12.4022 33.365 12.258C33.1418 12.204 32.1122 12.6828 31.1042 13.428C30.5749 13.8282 30.0219 14.1961 29.4482 14.5296C29.7036 14.5632 29.9489 14.6503 30.1682 14.7852C31.138 14.1351 32.1965 13.6283 33.311 13.2804L33.2174 13.2948Z" fill="#AA6102"/>
<path id="Vector_111" d="M34.3764 14.6516C34.5204 14.072 34.2468 13.2764 34.0884 13.2332C33.8246 13.2234 33.5605 13.2403 33.3 13.2836C32.1855 13.6314 31.127 14.1382 30.1572 14.7884C30.3272 14.9006 30.463 15.0576 30.5496 15.242C31.7811 14.8237 33.0762 14.6239 34.3764 14.6516Z" fill="#864000"/>
<path id="Vector_112" d="M33.7001 14.8573C33.9372 14.8352 34.1674 14.7654 34.3769 14.6521C33.0781 14.6237 31.7842 14.8222 30.5537 15.2389C30.5772 15.2917 30.5977 15.3457 30.6149 15.4009C31.0937 15.3001 32.7209 14.9689 34.0457 14.8429C33.9303 14.8415 33.815 14.8463 33.7001 14.8573Z" fill="#AA6102"/>
<g id="Vector_113" style="mix-blend-mode:screen">
<path d="M33.189 12.3044C32.756 12.4847 32.3403 12.704 31.947 12.9596C31.4756 13.2879 31.0335 13.6565 30.6258 14.0612C30.6042 14.0864 30.6258 14.126 30.6258 14.0972C31.0542 13.7372 31.4862 13.4024 31.9398 13.0856C32.1443 12.9407 32.3598 12.812 32.5842 12.7004C32.7826 12.6247 32.9761 12.537 33.1638 12.4376C33.2142 12.416 33.2862 12.2612 33.189 12.3044Z" fill="#AA6102"/>
</g>
<g id="Vector_114" style="mix-blend-mode:multiply" opacity="0.5">
<path d="M31.8383 16.7214C31.7013 16.6465 31.5816 16.5437 31.4867 16.4197C31.3919 16.2957 31.324 16.1532 31.2875 16.0014C31.2518 15.71 31.1867 15.4229 31.0931 15.1446C30.9789 14.9103 30.8082 14.708 30.5965 14.5559C30.3847 14.4038 30.1385 14.3068 29.8799 14.2734C29.6099 14.4462 29.4551 14.529 29.4551 14.529C29.7104 14.5626 29.9558 14.6497 30.1751 14.7846C30.3451 14.8969 30.4808 15.0539 30.5675 15.2382C30.591 15.291 30.6114 15.3451 30.6287 15.4002C30.692 15.6348 30.7055 15.8801 30.6683 16.1202C30.6369 16.349 30.5764 16.5728 30.4883 16.7862C30.8898 16.8643 31.2838 16.9775 31.6655 17.1246C32.8859 17.6502 33.4655 17.697 33.6203 17.6214C33.7367 17.5434 33.8339 17.44 33.9047 17.319C33.1765 17.2973 32.4657 17.0917 31.8383 16.7214Z" fill="#AA6102"/>
</g>
<path id="Vector_115" d="M12.3301 20.1597C12.3301 20.1597 14.5657 21.4557 15.9301 21.3153C17.0101 21.1353 16.7185 20.4225 16.3945 20.2101C16.0705 19.9977 12.3301 20.1597 12.3301 20.1597Z" fill="#864000"/>
<g id="Group_6" style="mix-blend-mode:multiply" opacity="0.5">
<path id="Vector_116" d="M15.6752 21.182C15.3152 21.002 14.912 20.8436 14.5376 20.6636C14.1632 20.4836 13.6808 20.4044 13.3208 20.21C13.3208 20.21 13.2956 20.21 13.3208 20.2316C13.6649 20.4171 14.0267 20.5679 14.4008 20.6816C14.804 20.8931 15.22 21.0795 15.6464 21.2396C15.6464 21.2396 15.6932 21.1928 15.6752 21.182Z" fill="#864000"/>
<path id="Vector_117" d="M15.9778 21.1062C15.3802 20.811 14.7682 20.541 14.1778 20.2314C14.1778 20.2314 14.149 20.2314 14.1778 20.253C14.7491 20.6073 15.3516 20.9086 15.9778 21.153C15.9778 21.153 15.9994 21.117 15.9778 21.1062Z" fill="#864000"/>
<path id="Vector_118" d="M16.4346 20.8577C16.2263 20.7426 16.0083 20.6463 15.783 20.5697C15.5308 20.4368 15.2637 20.3341 14.9874 20.2637C14.9874 20.2637 14.9586 20.2889 14.9874 20.2925C15.2249 20.3777 15.457 20.4774 15.6822 20.5913C15.9234 20.6921 16.1718 20.7929 16.4022 20.9009C16.4166 20.9081 16.449 20.8793 16.4346 20.8577Z" fill="#864000"/>
<path id="Vector_119" d="M16.5171 20.5623C16.3191 20.4579 16.0995 20.3967 15.9015 20.2959C15.8835 20.2959 15.8547 20.3211 15.8691 20.3319C15.9591 20.3859 16.0527 20.4183 16.1427 20.4615C16.2327 20.5047 16.3659 20.5695 16.4811 20.6127C16.5027 20.6163 16.5351 20.5731 16.5171 20.5623Z" fill="#864000"/>
</g>
<path id="Vector_120" d="M10.8467 12.3365C11.1284 12.1555 11.3924 11.9481 11.6351 11.7173C11.9375 11.4113 12.0419 11.2529 13.1759 10.9721C14.7641 10.6603 16.3895 10.5839 17.9999 10.7453C19.5731 10.9181 22.0895 11.6597 24.6059 13.0925C22.8959 12.6821 16.9559 10.9649 10.8467 12.3365Z" fill="#AA6102"/>
<g id="Vector_121" style="mix-blend-mode:multiply" opacity="0.5">
<path d="M23.465 12.485C23.1813 12.5085 22.8957 12.4866 22.619 12.4202C22.367 12.3554 22.1402 12.2258 21.899 12.1718C21.6578 12.1178 21.341 12.0422 21.0566 11.9882C20.4734 11.8766 19.8794 11.8478 19.2926 11.783C18.7058 11.7182 18.1802 11.5886 17.6222 11.5202C16.4533 11.4072 15.2747 11.4459 14.1158 11.6354C13.1216 11.7368 12.1345 11.8991 11.1602 12.1214C10.9874 12.2474 10.8506 12.3374 10.8506 12.3374C16.9706 10.9658 22.8998 12.6974 24.6206 13.0934C24.2318 12.8738 23.8466 12.6722 23.465 12.485Z" fill="#AA6102"/>
</g>
<path id="Vector_122" d="M25.0312 18.8279C25.0312 18.8279 26.5792 19.4975 27.382 19.1879C28.1848 18.8783 28.3973 18.4211 27.9005 18.1727C27.6627 18.062 27.4371 17.9269 27.2272 17.7695L25.0312 18.8279Z" fill="#864000"/>
<path id="Vector_123" d="M9.36002 16.8409C9.45722 14.9437 8.11082 13.8565 7.45562 13.7773C4.70522 14.1625 2.55602 17.0173 2.55602 17.0173C2.55602 17.0173 2.21762 16.9813 2.32922 17.1937C2.44327 17.3422 2.60246 17.4496 2.78282 17.4997C2.67482 17.7481 2.88002 18.0001 3.26522 18.0253C3.71882 18.7849 4.74122 19.1953 6.96962 19.5265C8.24762 19.3753 9.27722 18.5329 9.36002 16.8409Z" fill="#C6862C"/>
<path id="Vector_124" d="M30.7765 15.0297C30.3373 14.3529 29.8477 14.3637 29.2789 14.4789C28.7101 14.5941 28.7785 14.5041 26.2873 13.7589C23.4073 12.6249 22.2193 12.0309 17.4205 11.6457C13.9634 11.3632 10.4994 12.1031 7.45933 13.7733C8.11453 13.8525 9.46093 14.9397 9.36373 16.8369C9.27733 18.5289 8.24773 19.3569 6.96973 19.5225C7.51693 19.6017 8.13613 19.6773 8.83813 19.7529C18.9181 21.1533 22.9429 19.6449 24.6781 19.0977C26.4133 18.5505 28.1773 17.5713 29.0881 17.1717C29.9989 16.7721 30.0133 16.7253 30.3733 16.7793C30.8953 16.8765 31.2193 15.7101 30.7765 15.0297Z" fill="#C17500"/>
<path id="Vector_125" d="M10.2422 18.399C10.899 16.9125 11.8199 15.5573 12.9602 14.3994C14.1122 13.2402 14.4614 12.9414 14.4614 12.9414C14.1934 13.8225 13.7308 14.632 13.1078 15.3102C12.0062 16.5594 11.135 17.6898 10.2422 18.399Z" fill="#E6B75F"/>
<path id="Vector_126" d="M13.374 18.3594C13.374 18.3594 15.3144 14.4678 17.838 12.999C16.2504 15.1554 14.1876 17.7042 13.374 18.3594Z" fill="#E6B75F"/>
<path id="Vector_127" d="M16.5098 18.1543C16.5098 18.1543 18.5402 14.5543 20.5238 13.1143C19.2818 15.1843 18.0002 16.9951 16.5098 18.1543Z" fill="#E6B75F"/>
<path id="Vector_128" d="M19.8975 18C19.8975 18 21.5391 14.976 23.5947 13.9932C22.6407 15.5484 20.9235 17.5464 19.8975 18Z" fill="#E6B75F"/>
<path id="Vector_129" d="M23.7031 17.2802C23.7031 17.2802 25.1431 15.3686 26.1043 14.8682C25.3771 16.0166 24.7291 16.7582 23.7031 17.2802Z" fill="#E6B75F"/>
<g id="Group_7" style="mix-blend-mode:multiply">
<path id="Vector_130" d="M12.449 15.4797C12.017 16.0125 11.6246 16.5777 11.1782 17.0961C10.9602 17.3424 10.7547 17.5995 10.5626 17.8665C10.505 17.9493 10.4294 18.0429 10.3574 18.1401C10.2818 18.3021 10.2422 18.3957 10.2422 18.3957C11.135 17.6757 12.0062 16.5453 13.0898 15.3177C13.6309 14.7125 14.0567 14.0133 14.3462 13.2549C13.7126 14.0001 13.0646 14.7273 12.449 15.4797Z" fill="#BA842D"/>
<path id="Vector_131" d="M17.2152 13.7159C16.7688 14.2163 16.2432 14.6375 15.8328 15.1559C15.4224 15.6743 14.9976 16.3259 14.544 16.8875C14.3244 17.1611 14.1084 17.4419 13.8708 17.6975C13.7736 17.8019 13.6548 17.9063 13.5504 18.0179C13.4352 18.2303 13.374 18.3563 13.374 18.3563C14.1516 17.7227 16.074 15.3611 17.6292 13.2803C17.4852 13.4279 17.3484 13.5683 17.2152 13.7159Z" fill="#BA842D"/>
<path id="Vector_132" d="M18.9292 15.1202C18.4936 15.6134 18.0976 16.1426 17.6836 16.6538C17.2696 17.165 16.8988 17.6402 16.5244 18.1334V18.155C17.842 17.1362 18.9904 15.6062 20.0956 13.835C19.7464 14.3174 19.3036 14.6954 18.9292 15.1202Z" fill="#BA842D"/>
<path id="Vector_133" d="M22.0176 15.6125C21.6408 16.0445 21.27 16.4837 20.9052 16.9301C20.718 17.1641 20.5452 17.4053 20.3292 17.6213C20.2212 17.7329 20.1132 17.8409 20.0088 17.9561C21.0384 17.4053 22.6656 15.5045 23.5836 13.9961C23.0297 14.5031 22.5068 15.0428 22.0176 15.6125Z" fill="#BA842D"/>
<path id="Vector_134" d="M25.3482 15.6524C25.0494 15.9656 24.7614 16.2896 24.4446 16.5848C24.2034 16.8044 23.9586 17.0204 23.7246 17.258C24.7002 16.7576 25.3374 16.0448 26.0286 14.9648C25.8054 15.188 25.5606 15.4184 25.3482 15.6524Z" fill="#BA842D"/>
</g>
<g id="Vector_135" style="mix-blend-mode:multiply" opacity="0.5">
<path d="M30.7765 15.0293C30.3373 14.3525 29.8477 14.3633 29.2789 14.4785C29.3594 14.6467 29.3785 14.8377 29.3329 15.0185C29.1601 15.6305 28.3933 15.9077 27.8569 16.0985C26.6005 16.5233 25.4485 17.0525 24.1561 17.3333C22.7353 17.6839 21.2918 17.9353 19.8361 18.0857C18.3961 18.1829 16.9957 18.1217 15.5629 18.0857C14.2509 18.0494 12.9495 17.8388 11.6929 17.4593C11.1772 17.3017 10.7134 17.0082 10.3501 16.6097C10.0823 16.2787 9.85621 15.9159 9.67693 15.5297C9.26293 14.7665 8.59693 13.9061 7.72213 13.6289L7.45933 13.7729C8.11453 13.8521 9.46093 14.9393 9.36373 16.8365C9.27733 18.5285 8.24773 19.3565 6.96973 19.5221C7.51693 19.6013 8.13613 19.6769 8.83813 19.7525C18.9181 21.1529 22.9429 19.6445 24.6781 19.0973C26.4133 18.5501 28.1773 17.5709 29.0881 17.1713C29.9989 16.7717 30.0133 16.7249 30.3733 16.7789C30.8953 16.8761 31.2193 15.7097 30.7765 15.0293Z" fill="#C17500"/>
</g>
<g id="Vector_136" style="mix-blend-mode:multiply" opacity="0.5">
<path d="M8.38453 19.3608C8.70898 19.1859 8.9896 18.9397 9.20533 18.6408C9.43514 18.2679 9.55263 17.8367 9.54373 17.3988C9.58727 16.5216 9.42965 15.6461 9.08293 14.8392C8.91068 14.4353 8.60419 14.1034 8.21533 13.8996C8.02453 13.8204 7.82293 13.7628 7.63573 13.6836L7.45933 13.7808C8.11453 13.86 9.46093 14.9472 9.36373 16.8444C9.27733 18.5364 8.24773 19.3644 6.96973 19.53L7.85173 19.6488C8.03173 19.5588 8.21173 19.4652 8.38453 19.3608Z" fill="#C17500"/>
</g>
<path id="Vector_137" d="M12.8455 11.0986C12.4873 11.3679 12.1728 11.6909 11.9131 12.0562C12.1856 11.7105 12.4973 11.3976 12.8419 11.1238C12.8779 11.113 12.8743 11.077 12.8455 11.0986Z" fill="#8E4F03"/>
<path id="Vector_138" d="M13.6588 10.8965C13.2165 11.1607 12.8261 11.5036 12.5068 11.9081C12.5068 11.9081 12.5068 11.9369 12.5068 11.9081C12.8636 11.5425 13.2568 11.2144 13.6804 10.9289C13.6804 10.9289 13.6804 10.8785 13.6588 10.8965Z" fill="#8E4F03"/>
<path id="Vector_139" d="M14.4546 10.7998C13.9457 11.0601 13.4854 11.4059 13.0938 11.8222C13.0938 11.8222 13.0938 11.851 13.0938 11.8222C13.5082 11.4389 13.9633 11.1021 14.451 10.8178C14.451 10.8178 14.4834 10.7998 14.4546 10.7998Z" fill="#8E4F03"/>
<path id="Vector_140" d="M15.261 10.7674C14.808 11.0263 14.3822 11.3302 13.9902 11.6746C13.9902 11.6746 13.9902 11.725 13.9902 11.7034C14.3929 11.3738 14.8175 11.072 15.261 10.7998C15.261 10.7998 15.2826 10.753 15.261 10.7674Z" fill="#8E4F03"/>
<path id="Vector_141" d="M15.8759 10.7349C15.4522 10.9561 15.0679 11.2456 14.7383 11.5917C14.7383 11.5917 14.7383 11.6133 14.7383 11.5917C15.0879 11.2809 15.465 11.0025 15.8651 10.7601C15.8651 10.7601 15.9047 10.7169 15.8759 10.7349Z" fill="#8E4F03"/>
<path id="Vector_142" d="M16.4989 10.7416C16.0937 10.9778 15.7159 11.2579 15.3721 11.5768C15.3721 11.5768 15.3721 11.6056 15.3721 11.5948C15.5485 11.476 15.7033 11.314 15.8797 11.1916C16.0561 11.0692 16.2973 10.9252 16.4989 10.7848C16.5205 10.7704 16.5349 10.72 16.4989 10.7416Z" fill="#8E4F03"/>
<path id="Vector_143" d="M17.1255 10.7166C16.7083 10.9341 16.327 11.2146 15.9951 11.5482C15.9951 11.5662 15.9951 11.5986 15.9951 11.577C16.3526 11.2815 16.7264 11.0063 17.1147 10.7526C17.1147 10.7526 17.1543 10.6986 17.1255 10.7166Z" fill="#8E4F03"/>
<path id="Vector_144" d="M17.6762 10.7998C17.2783 10.9766 16.9206 11.2326 16.625 11.5522C16.7879 11.4104 16.9599 11.2793 17.1398 11.1598C17.309 11.041 17.4998 10.9582 17.6726 10.8466C17.687 10.8502 17.7122 10.7998 17.6762 10.7998Z" fill="#8E4F03"/>
<path id="Vector_145" d="M18.2923 10.8244C17.8864 11.0082 17.515 11.2603 17.1943 11.5696C17.1943 11.5948 17.1943 11.5696 17.1943 11.5696C17.5338 11.3002 17.895 11.0594 18.2743 10.8496C18.2743 10.8496 18.3211 10.7992 18.2923 10.8244Z" fill="#8E4F03"/>
<path id="Vector_146" d="M19.0547 10.8896C18.6284 11.1099 18.2181 11.3602 17.8271 11.6384C17.8271 11.6384 17.8271 11.6636 17.8271 11.6564C18.0138 11.5468 18.1941 11.4266 18.3671 11.2964C18.5903 11.1596 18.8243 11.0372 19.0511 10.9076C19.0799 10.9184 19.0799 10.8824 19.0547 10.8896Z" fill="#8E4F03"/>
<path id="Vector_147" d="M19.5735 11.1197C19.3945 11.2107 19.2235 11.3167 19.0623 11.4365C18.9399 11.5265 18.8319 11.6561 18.7023 11.7353C18.7023 11.7353 18.6843 11.7605 18.7023 11.7569C18.8321 11.6793 18.9528 11.5875 19.0623 11.4833C19.2279 11.3681 19.4007 11.2637 19.5735 11.1593C19.5951 11.1593 19.6095 11.1017 19.5735 11.1197Z" fill="#8E4F03"/>
<path id="Vector_148" d="M20.3471 11.3178C20.1082 11.4666 19.8797 11.6313 19.6631 11.811C19.6631 11.811 19.6631 11.8614 19.6631 11.8434C19.8935 11.6886 20.1095 11.5158 20.3399 11.361C20.3651 11.3466 20.3795 11.2962 20.3471 11.3178Z" fill="#8E4F03"/>
<path id="Vector_149" d="M21.0101 11.4873C20.7923 11.6143 20.5895 11.7652 20.4053 11.9373C20.4053 11.9553 20.4053 11.9841 20.4053 11.9661C20.5961 11.8077 20.8013 11.6709 20.9993 11.5233C21.0281 11.5197 21.0425 11.4693 21.0101 11.4873Z" fill="#8E4F03"/>
<path id="Vector_150" d="M21.633 11.7033C21.4512 11.8081 21.2789 11.9286 21.1182 12.0633C21.1182 12.0633 21.1182 12.1029 21.1182 12.0885C21.2874 11.9697 21.4602 11.8617 21.633 11.7285C21.651 11.7285 21.6618 11.6889 21.633 11.7033Z" fill="#8E4F03"/>
<path id="Vector_151" d="M21.9599 11.8799L21.7835 12.0059C21.7223 12.0527 21.6683 12.1103 21.6035 12.1535C21.6035 12.1535 21.6035 12.1787 21.6035 12.1715C21.667 12.1316 21.7283 12.0883 21.7871 12.0419L21.9671 11.9123C21.9671 11.9123 21.9779 11.8799 21.9599 11.8799Z" fill="#8E4F03"/>
<g id="Group_8" style="mix-blend-mode:multiply" opacity="0.5">
<path id="Vector_152" d="M26.9391 19.1589C26.5359 18.99 26.1237 18.8434 25.7043 18.7197C25.7043 18.7197 25.6719 18.7449 25.6863 18.7521C26.0895 18.9177 26.5071 19.0473 26.9139 19.1913C26.9319 19.2021 26.9571 19.1661 26.9391 19.1589Z" fill="#864000"/>
<path id="Vector_153" d="M27.3175 19.0588C26.9143 18.8608 26.4607 18.7672 26.0431 18.6016C26.0431 18.6016 26.0143 18.6016 26.0431 18.6268C26.4558 18.8069 26.8775 18.9656 27.3067 19.102C27.3067 19.102 27.3355 19.0804 27.3175 19.0588Z" fill="#864000"/>
<path id="Vector_154" d="M27.8138 18.7595C27.6086 18.6875 27.4034 18.6335 27.1946 18.5759C26.9858 18.5183 26.8022 18.4355 26.6006 18.3887C26.7698 18.4391 26.9246 18.5219 27.0902 18.5759C27.3278 18.6551 27.5654 18.7127 27.8102 18.7811C27.8066 18.7991 27.8318 18.7667 27.8138 18.7595Z" fill="#864000"/>
<path id="Vector_155" d="M28.1018 18.4898C27.7634 18.3602 27.407 18.263 27.0614 18.1514C27.3898 18.307 27.7337 18.4276 28.0874 18.5114C28.0802 18.5366 28.1234 18.497 28.1018 18.4898Z" fill="#864000"/>
</g>
<path id="Vector_156" d="M6.48006 15.9508C6.46794 16.1826 6.36459 16.4002 6.19259 16.556C6.02058 16.7118 5.7939 16.7932 5.56206 16.7824C5.44612 16.7957 5.32867 16.7844 5.21743 16.7491C5.10618 16.7139 5.00365 16.6555 4.91655 16.5778C4.82946 16.5001 4.75976 16.4049 4.71204 16.2984C4.66432 16.1919 4.63965 16.0765 4.63965 15.9598C4.63965 15.8431 4.66432 15.7278 4.71204 15.6213C4.75976 15.5148 4.82946 15.4195 4.91655 15.3419C5.00365 15.2642 5.10618 15.2058 5.21743 15.1705C5.32867 15.1353 5.44612 15.1239 5.56206 15.1372C5.79097 15.1263 6.01509 15.2053 6.1866 15.3573C6.3581 15.5093 6.46341 15.7223 6.48006 15.9508Z" fill="#8E4F03"/>
<path id="Vector_157" d="M6.11985 15.9546C6.12127 16.071 6.08808 16.1851 6.02447 16.2826C5.96087 16.38 5.86973 16.4563 5.76264 16.5019C5.65555 16.5474 5.53734 16.56 5.42304 16.5382C5.30875 16.5164 5.20352 16.4611 5.12073 16.3793C5.03794 16.2975 4.98133 16.193 4.9581 16.079C4.93487 15.9649 4.94606 15.8466 4.99026 15.7389C5.03445 15.6313 5.10965 15.5392 5.2063 15.4744C5.30295 15.4096 5.41668 15.375 5.53305 15.375C5.60963 15.3745 5.68556 15.3892 5.7565 15.418C5.82744 15.4469 5.892 15.4895 5.94649 15.5433C6.00098 15.5971 6.04433 15.6611 6.07408 15.7317C6.10382 15.8023 6.11937 15.878 6.11985 15.9546Z" fill="#E6B75F"/>
<path id="Vector_158" d="M5.81426 16.1278C5.74099 16.0662 5.66272 16.0109 5.58026 15.9622C5.61692 15.9153 5.6566 15.8708 5.69906 15.829C5.71706 15.829 5.72426 15.7606 5.69906 15.7858C5.64254 15.8297 5.59175 15.8805 5.54786 15.937H5.52986C5.45111 15.8762 5.36211 15.8298 5.26706 15.8002C5.26706 15.8002 5.24186 15.8218 5.26706 15.8254C5.30589 15.8481 5.34318 15.8734 5.37866 15.901L5.50826 15.9802L5.44706 16.0558C5.42354 16.0905 5.39704 16.123 5.36786 16.153C5.36786 16.153 5.34986 16.1854 5.36786 16.1782C5.38586 16.171 5.45426 16.0954 5.49746 16.0522C5.51488 16.0372 5.53058 16.0203 5.54426 16.0018C5.62706 16.0558 5.70266 16.1098 5.78546 16.1602C5.79626 16.171 5.82506 16.1422 5.81426 16.1278Z" fill="#8E4F03"/>
<path id="Vector_159" d="M5.569 14.8141C5.48064 14.8101 5.3925 14.8258 5.31095 14.8601C5.22939 14.8943 5.15646 14.9462 5.0974 15.0121C5.09384 15.0226 5.09384 15.034 5.0974 15.0445C5.0974 15.0445 5.0974 15.0445 5.119 15.0445C5.18553 15.029 5.25282 15.017 5.3206 15.0085C5.4243 15.0031 5.52826 15.0104 5.6302 15.0301C5.7094 15.0301 5.839 15.1381 5.9182 15.1093C5.9182 15.1093 5.9542 15.0805 5.9506 15.0625C5.9182 14.8969 5.7166 14.8321 5.569 14.8141Z" fill="#8E4F03"/>
<path id="Vector_160" d="M6.70305 16.4014C6.46909 16.4236 6.24352 16.5 6.04425 16.6246C5.85949 16.7292 5.71218 16.8891 5.62305 17.0818C5.62305 17.1034 5.64105 17.0818 5.64825 17.0818C5.7733 16.8946 5.94273 16.7412 6.14145 16.6354C6.31724 16.5654 6.49767 16.5076 6.68145 16.4626C6.70305 16.4626 6.74625 16.4014 6.70305 16.4014Z" fill="#8E4F03"/>
<path id="Vector_161" d="M6.23174 17.8481C6.20654 17.8013 6.14534 17.7689 6.10574 17.7329C6.06203 17.6928 6.02973 17.6419 6.01214 17.5853C6.01214 17.5637 5.97254 17.5853 5.97254 17.6105C5.96505 17.6643 5.97651 17.719 6.00494 17.7653C5.77413 17.8221 5.5319 17.8122 5.30654 17.7365C5.06174 17.6753 4.78814 17.6897 4.53614 17.6465C3.96374 17.5493 3.36614 17.5529 2.79014 17.4629C2.79014 17.4629 2.76134 17.4845 2.79014 17.4917C3.07524 17.5683 3.36694 17.6177 3.66134 17.6393C3.98894 17.6933 4.32014 17.6897 4.64774 17.7509C4.97534 17.8121 5.22734 17.8193 5.51534 17.8769C5.69865 17.9298 5.89546 17.9078 6.06254 17.8157C6.07741 17.8412 6.09768 17.8631 6.12194 17.8799C6.1462 17.8967 6.17385 17.908 6.20294 17.9129C6.20654 17.9129 6.24614 17.8697 6.23174 17.8481Z" fill="#8E4F03"/>
<g id="Group_9" style="mix-blend-mode:multiply">
<path id="Vector_162" d="M11.8546 14.2229L11.7106 14.0105L11.8042 13.9277C11.8042 13.9277 11.8042 13.8881 11.8042 13.9061C11.8042 13.9241 11.7394 13.9601 11.7034 13.9889C11.6458 13.8989 11.5918 13.8089 11.5378 13.7189L11.7142 13.5749C11.7142 13.5749 11.7358 13.5209 11.7142 13.5389L11.5198 13.6793C11.4478 13.5569 11.3794 13.4309 11.311 13.3193C11.3506 13.2869 11.3938 13.2581 11.437 13.2293C11.4802 13.2005 11.473 13.1537 11.437 13.1789L11.2894 13.2761L11.1022 12.9161C11.1022 12.9161 11.0698 12.9161 11.0734 12.9377L11.257 13.2977L10.7998 13.5821C10.699 13.4309 10.5982 13.2725 10.501 13.1177C10.6486 13.0205 10.7962 12.9233 10.951 12.8297C10.951 12.8297 10.9798 12.7757 10.951 12.7937C10.7926 12.8837 10.6342 12.9809 10.483 13.0817L10.429 12.9917C10.429 12.9917 10.4038 12.9917 10.4074 13.0133L10.4542 13.1033C10.3102 13.1969 10.177 13.2977 10.0438 13.4021L9.95382 13.2149C9.95382 13.2149 9.92502 13.2149 9.92862 13.2365C9.93222 13.2581 9.98262 13.3625 10.015 13.4273C9.87822 13.5353 9.75222 13.6469 9.62622 13.7657L9.49302 13.4417C9.52141 13.5586 9.56245 13.6721 9.61542 13.7801C9.47862 13.9169 9.34542 14.0645 9.21582 14.2193C9.34165 14.0732 9.47504 13.9339 9.61542 13.8017L9.70902 14.0033C9.75222 14.1185 9.79902 14.2301 9.85302 14.3417C9.74309 14.4558 9.63972 14.5759 9.54342 14.7017C9.64113 14.5818 9.7457 14.4676 9.85662 14.3597C9.91782 14.4929 9.98262 14.6189 10.0546 14.7449C10.0546 14.7449 10.0798 14.7449 10.0546 14.7269C9.99702 14.5937 9.93222 14.4605 9.87102 14.3273C9.99342 14.2121 10.123 14.1005 10.2598 13.9925C10.3462 14.1689 10.4398 14.3525 10.5406 14.5073C10.4758 14.5793 10.4146 14.6513 10.3534 14.7269C10.3534 14.7449 10.3534 14.7629 10.3714 14.7269C10.3894 14.6909 10.4938 14.5865 10.5586 14.5217L10.6162 14.6153C10.6162 14.6153 10.663 14.5973 10.6522 14.5793L10.5982 14.4821C10.7375 14.3367 10.8841 14.1986 11.0374 14.0681L11.2318 14.3417C11.2318 14.3597 11.1958 14.3813 11.1742 14.3993C11.1526 14.4173 11.1742 14.4317 11.1742 14.3993L11.239 14.3417C11.2606 14.3777 11.2858 14.4101 11.311 14.4461C11.3362 14.4821 11.3434 14.4461 11.3362 14.4209L11.275 14.3093L11.6746 14.0393C11.725 14.1077 11.779 14.1761 11.833 14.2409C11.887 14.3057 11.8798 14.2301 11.8546 14.2229ZM9.87102 14.3309C9.78822 14.1545 9.70542 13.9709 9.62622 13.7981C9.75222 13.6829 9.88182 13.5713 10.015 13.4669C10.0918 13.6397 10.171 13.8125 10.2526 13.9853C10.1194 14.0969 9.98982 14.2121 9.87102 14.3309ZM10.0474 13.4417C10.1806 13.3373 10.3138 13.2365 10.4578 13.1393C10.5386 13.3074 10.6287 13.4709 10.7278 13.6289C10.5802 13.7297 10.4398 13.8341 10.2994 13.9457C10.213 13.7801 10.1302 13.6109 10.0474 13.4417ZM10.5946 14.5001C10.501 14.3321 10.411 14.1629 10.3246 13.9925C10.465 13.8809 10.609 13.7801 10.7566 13.6757C10.8394 13.8125 10.9294 13.9457 11.023 14.0789C10.8732 14.212 10.7302 14.3525 10.5946 14.5001ZM10.8214 13.6325L11.2606 13.3193C11.3254 13.4453 11.3938 13.5749 11.4658 13.7009C11.3326 13.8017 11.203 13.9061 11.0806 14.0177L10.8214 13.6325ZM11.2822 14.3525C11.2282 14.2553 11.167 14.1581 11.1058 14.0645L11.4874 13.7441C11.5414 13.8341 11.599 13.9241 11.6566 14.0105C11.5198 14.1257 11.4046 14.2409 11.2822 14.3597V14.3525Z" fill="#C17500"/>
<path id="Vector_163" d="M17.3154 12.4986C17.108 12.6832 16.9109 12.8791 16.725 13.0854L16.329 12.8406C16.4802 12.7074 16.6314 12.5706 16.7718 12.4266C16.7934 12.405 16.7718 12.3726 16.7502 12.3978L16.2678 12.7974C16.1202 12.7038 15.9834 12.5922 15.843 12.4878C15.9186 12.4158 15.9906 12.3402 16.0626 12.2646C16.1346 12.189 16.0626 12.2034 16.0374 12.2322L15.7962 12.4518C15.7222 12.3961 15.6453 12.3444 15.5658 12.297C15.5658 12.297 15.5334 12.3186 15.5442 12.3258C15.6198 12.3762 15.6918 12.4302 15.7638 12.4842L15.3678 12.8442L15.2166 12.747L15.357 12.8514C15.2382 12.963 15.1266 13.071 14.997 13.1862L14.9142 13.1106C14.9142 13.1106 14.871 13.1322 14.8854 13.1466L14.9646 13.2186C14.8746 13.3086 14.7882 13.4022 14.709 13.4958L14.9862 13.2366C15.105 13.3446 15.2346 13.4454 15.3462 13.5462C15.2418 13.6398 15.1446 13.7334 15.0474 13.827L15.3678 13.557C15.519 13.6758 15.663 13.8054 15.8178 13.917L15.6774 14.0214C15.6774 14.0214 15.6594 14.0538 15.6774 14.043C15.733 14.01 15.786 13.9727 15.8358 13.9314L15.8754 13.9602C15.8754 13.9602 15.933 13.9278 15.915 13.9134L15.8826 13.8918C16.0122 13.7802 16.131 13.6578 16.2426 13.5318C16.3015 13.5757 16.3641 13.6142 16.4298 13.647C16.4298 13.647 16.4802 13.611 16.4622 13.6002C16.4024 13.5652 16.3447 13.5267 16.2894 13.485L16.3902 13.395C16.491 13.305 16.5882 13.2078 16.6818 13.1106C16.779 13.1718 16.8762 13.233 16.9698 13.2978C16.9914 13.2978 17.0274 13.269 17.0094 13.2546C16.9194 13.1862 16.8258 13.1214 16.7322 13.0602C16.9158 12.8622 17.0922 12.6606 17.2938 12.477C17.3478 12.513 17.3442 12.4734 17.3154 12.4986ZM15.4182 12.8586C15.5514 12.747 15.681 12.6318 15.807 12.4986C15.9366 12.603 16.0626 12.711 16.1958 12.8118L15.8358 13.1286C15.6954 13.0314 15.5478 12.9414 15.4038 12.8478L15.4182 12.8586ZM15.0222 13.2186C15.1374 13.107 15.2562 12.9954 15.3822 12.891L15.7962 13.1826C15.663 13.2942 15.5334 13.413 15.4074 13.5426C15.2742 13.4418 15.1446 13.341 15.0222 13.233V13.2186ZM15.8934 13.9098C15.7422 13.791 15.591 13.6722 15.4362 13.5498L15.8394 13.2366C15.9834 13.341 16.113 13.467 16.2534 13.575C16.1454 13.6974 16.023 13.8126 15.8934 13.9242V13.9098ZM16.311 13.5138C16.1706 13.4094 16.0374 13.287 15.897 13.1862L16.275 12.8694C16.4046 12.9594 16.5414 13.0422 16.6746 13.125C16.5594 13.269 16.4334 13.4022 16.311 13.5282V13.5138Z" fill="#C17500"/>
<path id="Vector_164" d="M19.3782 12.7937C19.2234 12.9017 19.0722 13.0205 18.9282 13.1537L18.7374 13.3337C18.731 13.3449 18.7224 13.3547 18.7122 13.3625L18.4818 13.0745L18.6654 12.9233C18.7293 13.0174 18.8003 13.1065 18.8778 13.1897C18.8778 13.1897 18.9102 13.1897 18.903 13.1609C18.8418 13.0673 18.777 12.9773 18.7122 12.8837C18.7986 12.8117 18.885 12.7433 18.9678 12.6677C18.9858 12.6677 18.9678 12.6137 18.9678 12.6389L18.705 12.8585C18.6258 12.7469 18.5466 12.6389 18.471 12.5273C18.471 12.5273 18.4494 12.5273 18.453 12.5273C18.5144 12.6512 18.5829 12.7714 18.6582 12.8873C18.6006 12.9413 18.5358 12.9917 18.4782 13.0421C18.399 12.9485 18.3234 12.8513 18.2442 12.7541C18.2442 12.7541 18.2226 12.7541 18.2442 12.7757L18.4638 13.0673C18.3126 13.2005 18.1938 13.3625 18.0498 13.5029C18.201 13.3733 18.3306 13.2185 18.4782 13.0853L18.7158 13.3769C18.6658 13.4578 18.6025 13.5296 18.5286 13.5893C18.5286 13.5893 18.5286 13.6145 18.5286 13.6109C18.5553 13.5985 18.5787 13.58 18.597 13.5569L18.7374 13.4021L18.813 13.4921C18.813 13.4921 18.8382 13.4921 18.831 13.4705L18.759 13.3769C18.7986 13.3409 18.8346 13.3013 18.8778 13.2653C19.047 13.1069 19.2378 12.9809 19.4106 12.8189C19.3962 12.8117 19.4034 12.7757 19.3782 12.7937Z" fill="#C17500"/>
<path id="Vector_165" d="M22.8277 13.7771C22.7017 13.8635 22.5757 13.9607 22.4677 14.0615L22.0681 13.7231L22.2121 13.6079C22.2337 13.6079 22.2373 13.5431 22.2121 13.5647C22.1524 13.6038 22.0947 13.6458 22.0393 13.6907L21.7189 13.4171L21.8161 13.3199C21.8161 13.3199 21.8377 13.2695 21.8161 13.2875C21.7945 13.3055 21.7153 13.3595 21.6685 13.3955C21.5389 13.2911 21.4057 13.1903 21.2689 13.0967C21.3949 13.1975 21.5137 13.3055 21.6289 13.4135C21.4744 13.5439 21.3266 13.6821 21.1861 13.8275C21.0637 13.7231 20.9377 13.6187 20.8261 13.5071C20.8261 13.5071 20.8009 13.5071 20.8261 13.5287C20.9341 13.6439 21.0529 13.7555 21.1861 13.8635L21.0421 14.0075C20.9197 14.1299 20.7901 14.2487 20.6641 14.3675C20.5592 14.2746 20.4594 14.176 20.3653 14.0723C20.449 14.1829 20.5417 14.2865 20.6425 14.3819L20.5777 14.4395C20.4613 14.5692 20.3349 14.6895 20.1997 14.7995C20.1997 14.7995 20.1745 14.8427 20.1997 14.8283C20.2644 14.7925 20.3208 14.7434 20.3653 14.6843C20.4625 14.5835 20.5633 14.4899 20.6641 14.3963C20.7757 14.5079 20.8945 14.6159 21.0241 14.7203L20.7541 15.0479C20.7541 15.0659 20.7541 15.0767 20.7541 15.0479L21.0421 14.7311L21.2977 14.9651C21.2977 14.9651 21.3409 14.9435 21.3301 14.9327C21.2506 14.8477 21.1664 14.7672 21.0781 14.6915C21.2437 14.5115 21.4093 14.3315 21.5785 14.1587L21.9781 14.5187C21.8681 14.6327 21.7647 14.7529 21.6685 14.8787C21.6685 14.9003 21.6685 14.9039 21.6685 14.8787C21.7693 14.7563 21.8809 14.6411 21.9961 14.5187C22.0047 14.5292 22.0144 14.5388 22.0249 14.5475C22.0249 14.5475 22.0717 14.5223 22.0609 14.5079L22.0321 14.4827C22.1797 14.3351 22.3345 14.1983 22.4929 14.0615L22.5865 14.1335C22.5865 14.1335 22.6369 14.1047 22.6189 14.0939L22.5397 14.0219L22.8781 13.7339C22.8781 13.7339 22.8601 13.7555 22.8277 13.7771ZM20.9917 14.7131L20.6317 14.4035L20.8441 14.2091L21.1645 13.9031L21.4705 14.1731C21.3085 14.3459 21.1465 14.5295 20.9917 14.7131ZM21.2077 13.8671C21.3553 13.7267 21.4993 13.5899 21.6505 13.4567L21.9565 13.7339C21.8056 13.8569 21.6614 13.9879 21.5245 14.1263C21.4201 14.0399 21.3157 13.9535 21.2077 13.8671ZM21.9601 14.5223C21.8363 14.3949 21.7052 14.2747 21.5677 14.1623C21.7045 14.0255 21.8485 13.8923 21.9961 13.7663C22.1293 13.8851 22.2625 13.9967 22.4029 14.1047C22.2467 14.2345 22.0988 14.374 21.9601 14.5223Z" fill="#C17500"/>
<path id="Vector_166" d="M24.9552 14.5756L24.8184 14.6836C24.7104 14.6044 24.5916 14.536 24.48 14.4604L24.588 14.3812C24.6096 14.3632 24.6276 14.302 24.588 14.3272L24.4404 14.428C24.3654 14.376 24.2966 14.3156 24.2352 14.248C24.2352 14.248 24.1956 14.2696 24.2064 14.284C24.2634 14.3494 24.3261 14.4096 24.3936 14.464C24.2964 14.536 24.2028 14.6188 24.1092 14.7016C24.0372 14.6404 23.9616 14.5828 23.8896 14.518C23.8896 14.518 23.8572 14.536 23.868 14.5432C23.9364 14.608 24.0048 14.6728 24.0768 14.7304C23.7996 14.986 23.5548 15.274 23.292 15.544C23.5728 15.2812 23.8284 15.004 24.1056 14.7484C24.2064 14.8348 24.3108 14.9176 24.4152 14.9968C24.2845 15.12 24.1641 15.2537 24.0552 15.3964C24.0552 15.418 24.0552 15.4324 24.0552 15.3964C24.1842 15.2692 24.32 15.149 24.462 15.0364L24.6096 15.1444C24.6276 15.1444 24.6564 15.1192 24.642 15.1048L24.5052 14.9968L24.8076 14.7412L24.9084 14.8132C24.9264 14.8132 24.9588 14.788 24.9408 14.7736C24.9228 14.7592 24.8832 14.7268 24.8544 14.7016L24.966 14.6008C24.9984 14.5936 24.9948 14.5468 24.9552 14.5756ZM24.48 14.9752L24.1668 14.734C24.258 14.6524 24.3516 14.5732 24.4476 14.4964C24.5556 14.5756 24.6708 14.6476 24.7824 14.7232C24.6636 14.806 24.5628 14.8888 24.48 14.9752Z" fill="#C17500"/>
<path id="Vector_167" d="M28.8003 15.4436L28.5303 15.7136L28.0443 15.3536L28.2927 15.1052C28.2927 15.1052 28.2927 15.0584 28.2927 15.0764C28.1941 15.1508 28.1003 15.2313 28.0119 15.3176C27.8427 15.1988 27.6807 15.08 27.5223 14.9576C27.5822 14.8928 27.6364 14.8229 27.6843 14.7488C27.7059 14.7236 27.6843 14.72 27.6591 14.7488L27.4827 14.9396C27.4071 14.8784 27.3315 14.8172 27.2595 14.7488C27.2595 14.7488 27.2199 14.7488 27.2307 14.7812L27.4503 14.9756C27.3243 15.116 27.1947 15.2528 27.0651 15.3932C26.9175 15.2888 26.7735 15.1808 26.6295 15.0728L27.0507 15.404C26.9401 15.5275 26.8368 15.6574 26.7411 15.7928L26.2875 15.4328C26.2875 15.4328 26.2479 15.458 26.2587 15.4652L26.7051 15.8252C26.5986 15.9766 26.478 16.1176 26.3451 16.2464C26.4905 16.1252 26.6199 15.9861 26.7303 15.8324L27.1875 16.1924C27.1176 16.2913 27.0367 16.3819 26.9463 16.4624C26.9247 16.4624 26.9463 16.5128 26.9463 16.4912C27.0439 16.4116 27.1331 16.3224 27.2127 16.2248C27.4035 16.376 27.5979 16.5308 27.7887 16.6892C27.7887 16.6892 27.8463 16.6568 27.8283 16.6424C27.6447 16.4768 27.4683 16.322 27.2559 16.1708C27.3459 16.0592 27.4323 15.9476 27.5223 15.8504L27.5943 15.7784L28.0875 16.1384C27.9687 16.2572 27.8463 16.3976 27.8571 16.4588H27.8247C27.8247 16.484 27.8499 16.4588 27.8571 16.4588C27.9267 16.3684 28.0012 16.2819 28.0803 16.1996L28.1595 16.2572C28.1595 16.2572 28.1847 16.2572 28.1595 16.2356L28.0803 16.1996C28.2099 16.0592 28.3467 15.926 28.4835 15.7964L28.5159 15.818C28.5159 15.818 28.5735 15.7856 28.5555 15.7712H28.5267C28.6203 15.6848 28.7067 15.5984 28.7931 15.512C28.8291 15.4544 28.8003 15.4184 28.8003 15.4436ZM27.2811 16.0844L27.1803 16.1996L26.7195 15.8396C26.8023 15.7316 26.8815 15.6272 26.9607 15.53L27.0435 15.44L27.5223 15.8C27.4359 15.8936 27.3603 15.9872 27.2667 16.0844H27.2811ZM27.0831 15.4076C27.2127 15.2708 27.3495 15.1412 27.4755 15.0008C27.6303 15.1304 27.7887 15.2528 27.9543 15.3608C27.8535 15.4616 27.7599 15.5624 27.6627 15.656L27.5727 15.7532L27.0831 15.4076ZM28.2315 16.0232L28.0875 16.1636C27.9327 16.0376 27.7743 15.9116 27.6087 15.8036C27.7383 15.6704 27.8679 15.5444 28.0011 15.4184L28.4871 15.7784C28.3863 15.8396 28.2999 15.9332 28.2171 16.0232H28.2315Z" fill="#C17500"/>
</g>
<path id="Vector_168" d="M11.2684 18.4574C11.2684 18.3494 11.1244 18.3638 11.0596 18.4034C11.0281 18.4218 11.0025 18.4489 10.9859 18.4815C10.9693 18.514 10.9624 18.5506 10.966 18.587C10.9645 18.5965 10.9645 18.6063 10.966 18.6158C10.966 18.6842 11.0272 18.7094 11.0848 18.6914C11.1058 18.6842 11.1253 18.6732 11.1424 18.659C11.1613 18.6486 11.1773 18.6338 11.1892 18.6158C11.214 18.5976 11.2341 18.5737 11.2479 18.5461C11.2617 18.5186 11.2687 18.4882 11.2684 18.4574Z" fill="#461800"/>
<path id="Vector_169" d="M12.2978 17.5751C12.2869 17.5688 12.2744 17.5654 12.2618 17.5654C12.2492 17.5654 12.2367 17.5688 12.2258 17.5751C12.2006 17.5732 12.1754 17.5784 12.153 17.59C12.1306 17.6016 12.1118 17.6192 12.0988 17.6408C12.0857 17.6625 12.0789 17.6873 12.0791 17.7125C12.0793 17.7377 12.0865 17.7625 12.0998 17.7839C12.1133 17.7986 12.1297 17.8104 12.148 17.8184C12.1663 17.8265 12.186 17.8306 12.206 17.8306C12.226 17.8306 12.2457 17.8265 12.264 17.8184C12.2823 17.8104 12.2987 17.7986 12.3122 17.7839C12.3662 17.7371 12.3806 17.6147 12.2978 17.5751Z" fill="#461800"/>
<path id="Vector_170" d="M12.2761 18.8851L12.2401 18.8671C12.1537 18.8383 12.1069 18.9463 12.1249 19.0147C12.1303 19.0286 12.1385 19.0412 12.1491 19.0516C12.1598 19.062 12.1725 19.0701 12.1865 19.0752C12.2004 19.0803 12.2153 19.0824 12.2302 19.0812C12.245 19.0801 12.2595 19.0758 12.2725 19.0687C12.291 19.0597 12.3068 19.046 12.3181 19.0289C12.3295 19.0118 12.3362 18.992 12.3373 18.9715C12.3361 18.9528 12.3298 18.9349 12.319 18.9196C12.3082 18.9043 12.2933 18.8924 12.2761 18.8851Z" fill="#461800"/>
<path id="Vector_171" d="M12.7662 16.6061C12.7456 16.6149 12.7278 16.6294 12.7151 16.6479C12.7024 16.6664 12.6951 16.6881 12.6942 16.7105C12.6925 16.7273 12.6925 16.7441 12.6942 16.7609C12.68 16.7812 12.6679 16.8029 12.6582 16.8257C12.6582 16.8581 12.6582 16.9085 12.6942 16.9157C12.7302 16.9229 12.8274 16.8221 12.8382 16.7573C12.849 16.6925 12.8526 16.5773 12.7662 16.6061Z" fill="#461800"/>
<path id="Vector_172" d="M13.842 19.0579C13.8153 19.0355 13.7826 19.0215 13.748 19.0177C13.7134 19.0138 13.6785 19.0203 13.6476 19.0363C13.6238 19.0533 13.6038 19.075 13.5887 19.1001C13.5736 19.1251 13.5637 19.1529 13.5597 19.1818C13.5557 19.2108 13.5575 19.2403 13.5652 19.2684C13.5729 19.2966 13.5862 19.323 13.6044 19.3459C13.6193 19.3763 13.6431 19.4015 13.6728 19.4179C13.77 19.4791 13.9248 19.3351 13.914 19.2379C13.9109 19.1715 13.8855 19.1081 13.842 19.0579Z" fill="#461800"/>
<path id="Vector_173" d="M15.5161 18.0934C15.5068 18.0898 15.4965 18.0898 15.4873 18.0934C15.4477 18.0682 15.4045 18.1222 15.3901 18.1618C15.3757 18.2014 15.3901 18.2842 15.4405 18.277C15.4909 18.2698 15.5305 18.2122 15.5341 18.1582C15.5355 18.1467 15.5347 18.1351 15.5316 18.1239C15.5285 18.1128 15.5232 18.1024 15.5161 18.0934Z" fill="#461800"/>
<path id="Vector_174" d="M15.6207 19.166C15.6167 19.1614 15.6117 19.1577 15.6061 19.1552C15.6005 19.1527 15.5944 19.1514 15.5883 19.1514C15.5822 19.1514 15.5761 19.1527 15.5705 19.1552C15.565 19.1577 15.56 19.1614 15.5559 19.166C15.5488 19.1619 15.5407 19.1597 15.5325 19.1597C15.5243 19.1597 15.5162 19.1619 15.5091 19.166C15.5003 19.174 15.4936 19.184 15.4895 19.1952C15.4855 19.2064 15.4844 19.2185 15.4862 19.2302C15.4879 19.242 15.4926 19.2532 15.4998 19.2627C15.5069 19.2722 15.5163 19.2798 15.5271 19.2848C15.5308 19.2893 15.5355 19.293 15.5408 19.2955C15.5461 19.298 15.5519 19.2993 15.5577 19.2993C15.5636 19.2993 15.5694 19.298 15.5746 19.2955C15.5799 19.293 15.5846 19.2893 15.5883 19.2848C15.6055 19.2715 15.6171 19.2522 15.6207 19.2308C15.6261 19.2208 15.6289 19.2097 15.6289 19.1984C15.6289 19.1871 15.6261 19.176 15.6207 19.166Z" fill="#461800"/>
<path id="Vector_175" d="M16.3336 17.0166C16.3336 17.0166 16.3336 17.0166 16.3048 17.0166C16.276 17.0166 16.2508 17.0706 16.2472 17.1102C16.2436 17.1498 16.3012 17.1606 16.33 17.1282C16.3588 17.0958 16.3696 17.0382 16.3336 17.0166Z" fill="#461800"/>
<path id="Vector_176" d="M18.2093 18.5469L18.1805 18.5217C18.1628 18.4988 18.1371 18.4833 18.1085 18.4785C18.0077 18.4785 17.9357 18.6153 17.9429 18.6945C17.9437 18.716 17.9506 18.7369 17.9627 18.7547C17.9748 18.7725 17.9916 18.7866 18.0113 18.7953C18.0416 18.806 18.0746 18.806 18.1049 18.7953H18.1337C18.1606 18.7849 18.1842 18.7675 18.2021 18.7449C18.2284 18.7191 18.2438 18.6842 18.2451 18.6473C18.2465 18.6105 18.2336 18.5746 18.2093 18.5469Z" fill="#461800"/>
<path id="Vector_177" d="M19.1667 19.0795C19.1536 19.0684 19.137 19.062 19.1199 19.0615C19.0695 19.0615 19.0155 19.1155 19.0119 19.1623C19.0083 19.2091 19.0767 19.3027 19.1415 19.2487C19.1549 19.2398 19.1663 19.2282 19.1749 19.2146C19.1836 19.2009 19.1893 19.1857 19.1917 19.1697C19.194 19.1538 19.193 19.1375 19.1887 19.122C19.1844 19.1064 19.1769 19.092 19.1667 19.0795Z" fill="#461800"/>
<path id="Vector_178" d="M20.5493 18.1621C20.4845 18.0865 20.4125 18.1981 20.3909 18.2557C20.3786 18.2843 20.3713 18.3147 20.3693 18.3457C20.3668 18.3601 20.3685 18.3749 20.3743 18.3883C20.38 18.4017 20.3895 18.4132 20.4017 18.4213C20.4377 18.4429 20.4737 18.4213 20.5025 18.3961C20.5375 18.3696 20.5616 18.3311 20.5702 18.288C20.5788 18.2449 20.5714 18.2001 20.5493 18.1621Z" fill="#461800"/>
<path id="Vector_179" d="M21.96 18.9029C21.9514 18.8974 21.9414 18.8945 21.9312 18.8945C21.921 18.8945 21.9111 18.8974 21.9024 18.9029C21.8869 18.9051 21.8721 18.9112 21.8595 18.9206C21.8469 18.9301 21.8369 18.9425 21.8304 18.9569C21.8196 18.9731 21.8125 18.9915 21.8094 19.0107C21.8063 19.03 21.8073 19.0496 21.8124 19.0685C21.834 19.1585 21.924 19.1513 21.978 19.0937C21.9927 19.0817 22.0043 19.0663 22.0116 19.0488C22.0189 19.0313 22.0218 19.0123 22.0201 18.9934C22.0183 18.9746 22.0119 18.9564 22.0014 18.9406C21.9909 18.9248 21.9767 18.9118 21.96 18.9029Z" fill="#461800"/>
<path id="Vector_180" d="M22.8637 17.9998C22.8559 17.9907 22.8463 17.9833 22.8354 17.9783C22.8245 17.9733 22.8127 17.9707 22.8007 17.9707C22.7887 17.9707 22.7769 17.9733 22.766 17.9783C22.7552 17.9833 22.7455 17.9907 22.7377 17.9998C22.7229 18.0183 22.7123 18.0398 22.7067 18.0628C22.7011 18.0858 22.7007 18.1098 22.7053 18.133C22.7066 18.1428 22.7099 18.1523 22.715 18.1609C22.7202 18.1694 22.727 18.1768 22.7351 18.1825C22.7432 18.1883 22.7525 18.1923 22.7622 18.1943C22.7719 18.1963 22.782 18.1962 22.7917 18.1942C22.8096 18.1904 22.8263 18.1822 22.8402 18.1702C22.854 18.1582 22.8646 18.143 22.8709 18.1258C22.8817 18.1062 22.8867 18.084 22.8854 18.0617C22.8842 18.0395 22.8766 18.018 22.8637 17.9998Z" fill="#461800"/>
<path id="Vector_181" d="M22.1296 17.1105C22.1187 17.09 22.1035 17.0722 22.085 17.0583C22.0665 17.0443 22.0452 17.0346 22.0225 17.0298C21.9999 17.025 21.9764 17.0252 21.9539 17.0305C21.9313 17.0357 21.9102 17.0458 21.892 17.0601C21.8618 17.0859 21.8427 17.1224 21.8387 17.162C21.8347 17.2015 21.846 17.2411 21.8704 17.2725C21.8859 17.2921 21.9056 17.308 21.928 17.3193H21.9568C21.9681 17.3245 21.9803 17.3271 21.9928 17.3271C22.0052 17.3271 22.0175 17.3245 22.0288 17.3193C22.0525 17.3122 22.0738 17.2985 22.09 17.2797C22.1061 17.2584 22.1171 17.2337 22.1221 17.2075C22.1271 17.1812 22.126 17.1542 22.1188 17.1285C22.1188 17.1285 22.1332 17.1177 22.1296 17.1105Z" fill="#461800"/>
<path id="Vector_182" d="M19.4907 16.9193C19.4907 16.8797 19.4547 16.8581 19.4187 16.8437C19.41 16.8386 19.4 16.8359 19.3899 16.8359C19.3798 16.8359 19.3699 16.8386 19.3611 16.8437C19.3462 16.8433 19.3315 16.8481 19.3197 16.8573C19.3079 16.8665 19.2996 16.8795 19.2963 16.8941C19.291 16.9041 19.2879 16.9151 19.2872 16.9265C19.2866 16.9378 19.2884 16.9491 19.2924 16.9597C19.2965 16.9703 19.3029 16.9799 19.311 16.9878C19.3191 16.9957 19.3288 17.0018 19.3395 17.0057C19.3489 17.0127 19.3602 17.0165 19.3719 17.0165C19.3836 17.0165 19.395 17.0127 19.4043 17.0057C19.4403 16.9913 19.4943 16.9517 19.4907 16.9193Z" fill="#461800"/>
<path id="Vector_183" d="M18.9798 16.9202C18.9621 16.9213 18.945 16.9273 18.9304 16.9374C18.9158 16.9476 18.9043 16.9615 18.897 16.9778C18.895 16.9873 18.895 16.9971 18.897 17.0066C18.897 17.0318 18.897 17.057 18.9294 17.057C18.9618 17.057 19.0122 17.003 19.0194 16.9634C19.0206 16.9578 19.0205 16.952 19.019 16.9464C19.0174 16.9409 19.0146 16.9358 19.0108 16.9316C19.0069 16.9274 19.0021 16.9241 18.9967 16.9221C18.9913 16.9202 18.9855 16.9195 18.9798 16.9202Z" fill="#461800"/>
<path id="Vector_184" d="M23.4511 18C23.4511 18 23.4511 17.9568 23.4115 17.9532C23.3719 17.9496 23.3539 17.9532 23.3359 17.9964C23.3256 18.0051 23.3176 18.0163 23.3126 18.0288C23.3075 18.0414 23.3057 18.055 23.3071 18.0684C23.3071 18.1332 23.3899 18.1152 23.4259 18.0684C23.4365 18.0608 23.4445 18.0503 23.449 18.0381C23.4535 18.0259 23.4543 18.0126 23.4511 18Z" fill="#461800"/>
<path id="Vector_185" d="M23.9723 17.4521C23.9363 17.4521 23.8859 17.5385 23.9363 17.5385C23.9867 17.5385 24.0227 17.4521 23.9723 17.4521Z" fill="#461800"/>
<path id="Vector_186" d="M26.0032 17.0242C25.9914 17.0206 25.9789 17.0206 25.9672 17.0242C25.946 17.0307 25.9276 17.0442 25.9152 17.0625C25.9028 17.0809 25.897 17.1029 25.8988 17.125C25.8984 17.1353 25.9004 17.1455 25.9047 17.1548C25.909 17.1641 25.9155 17.1723 25.9236 17.1786C25.9317 17.1849 25.9411 17.1892 25.9512 17.1912C25.9613 17.1931 25.9717 17.1927 25.9816 17.1898C26.0057 17.1854 26.0274 17.1724 26.0427 17.1532C26.0579 17.134 26.0656 17.1099 26.0644 17.0854C26.0635 17.0694 26.0568 17.0544 26.0455 17.0431C26.0342 17.0318 26.0191 17.0251 26.0032 17.0242Z" fill="#461800"/>
<path id="Vector_187" d="M27.3603 17.1608C27.3629 17.1461 27.3623 17.1311 27.3585 17.1167C27.3546 17.1023 27.3476 17.0889 27.338 17.0776C27.3283 17.0662 27.3163 17.0571 27.3027 17.051C27.2891 17.0448 27.2744 17.0418 27.2595 17.042C27.2238 17.0499 27.1918 17.0694 27.1684 17.0974C27.1449 17.1254 27.1314 17.1603 27.1299 17.1968C27.1299 17.2652 27.2055 17.2868 27.2631 17.258C27.2881 17.2415 27.31 17.2208 27.3279 17.1968C27.3279 17.1968 27.3603 17.1716 27.3603 17.1608Z" fill="#461800"/>
<path id="Vector_188" d="M9.42135 18.6009C9.42135 18.5685 9.36375 18.6225 9.36735 18.6441C9.36703 18.653 9.36923 18.6617 9.37369 18.6694C9.37816 18.677 9.38469 18.6832 9.39255 18.6873C9.39255 18.6873 9.42855 18.6873 9.43935 18.6873C9.44003 18.6789 9.44003 18.6705 9.43935 18.6621C9.43935 18.6621 9.42855 18.6189 9.42135 18.6009Z" fill="#461800"/>
<path id="Vector_189" d="M9.00036 19.1191C8.97516 19.1191 8.93916 19.1803 8.97516 19.1803C9.01116 19.1803 9.03996 19.1191 9.00036 19.1191Z" fill="#461800"/>
<path id="Vector_190" d="M12.6001 13.1973C12.5605 13.1973 12.5029 13.2945 12.5605 13.2945C12.6181 13.2945 12.6505 13.1973 12.6001 13.1973Z" fill="#461800"/>
<path id="Vector_191" d="M14.537 12.4346C14.4902 12.4346 14.4254 12.5498 14.4902 12.5498C14.555 12.5498 14.6054 12.4346 14.537 12.4346Z" fill="#461800"/>
<g id="Group_10" style="mix-blend-mode:screen" opacity="0.5">
<path id="Vector_192" d="M18.9 12.0305C18.507 11.8997 18.0972 11.8257 17.6832 11.8109C17.298 11.7713 16.9056 11.7533 16.5168 11.7461C15.6754 11.7382 14.8341 11.7767 13.9968 11.8613C12.5568 11.9945 10.8972 12.1997 9.61924 12.9413C9.59404 12.9413 9.55444 13.0349 9.61924 13.0205C10.2852 12.8477 10.9224 12.5849 11.5956 12.4337C12.3436 12.2983 13.1004 12.2165 13.86 12.1889C14.655 12.1224 15.4529 12.0971 16.2504 12.1133C16.6968 12.1133 17.1432 12.1529 17.5896 12.1961C17.9783 12.2584 18.3701 12.2993 18.7632 12.3185C18.846 12.3329 19.044 12.0881 18.9 12.0305Z" fill="white"/>
<path id="Vector_193" d="M22.6152 12.6212C22.1026 12.4451 21.5747 12.3173 21.0384 12.2396C20.5287 12.1141 20.0042 12.0595 19.4796 12.0776C19.4364 12.0776 19.332 12.2108 19.4076 12.2216C19.89 12.2972 20.3688 12.4448 20.8476 12.5456C21.3949 12.671 21.9509 12.7552 22.5108 12.7976C22.572 12.794 22.7088 12.6572 22.6152 12.6212Z" fill="white"/>
</g>
<g id="Vector_194" style="mix-blend-mode:screen">
<path d="M5.81468 14.4938C5.31646 14.7489 4.83544 15.0363 4.37468 15.3542C4.14665 15.509 3.92899 15.6785 3.72308 15.8618C3.49628 16.0706 3.31268 16.3118 3.09668 16.5278C3.09668 16.5278 3.09668 16.571 3.09668 16.553C3.49933 16.1586 3.92486 15.7884 4.37108 15.4442C4.83908 15.113 5.33588 14.861 5.81108 14.5694C5.85788 14.5478 5.88308 14.4578 5.81468 14.4938Z" fill="#C6862C"/>
</g>
<g id="Vector_195" style="mix-blend-mode:screen">
<path d="M7.42316 13.9932C7.23417 14.0026 7.04749 14.039 6.86876 14.1012C6.64218 14.1902 6.42205 14.2949 6.20996 14.4144C6.38636 14.4144 6.53756 14.2776 6.70316 14.2344C6.93943 14.1966 7.17279 14.1425 7.40156 14.0724C7.41956 14.0724 7.48076 13.9932 7.42316 13.9932Z" fill="#C6862C"/>
</g>
</g>
</g>
</g>
<defs>
<clipPath id="clip0_140_7041">
<rect width="36" height="36" fill="white"/>
</clipPath>
</defs>
</svg>
